<svg width="400" height="514" viewBox="0 0 400 514" fill="none" xmlns="http://www.w3.org/2000/svg">
<path d="M181.238 144.17H8.50625C3.84153 144.17 0 140.325 0 135.588V22.3121C0 17.5751 3.84153 13.7306 8.50625 13.7306H181.238C185.971 13.7306 189.744 17.5751 189.744 22.2435V135.52C189.813 140.325 185.971 144.17 181.238 144.17ZM8.50625 15.4469C4.73332 15.4469 1.71497 18.5363 1.71497 22.2435V135.52C1.71497 139.296 4.80192 142.316 8.50625 142.316H181.238C185.011 142.316 188.029 139.227 188.029 135.52V22.2435C188.029 18.4676 184.942 15.4469 181.238 15.4469H8.50625Z" fill="black"/>
<path d="M59.5732 82.5201C56.9664 82.5201 54.9084 80.3919 54.9084 77.8517V49.9789C54.9084 47.3701 57.035 45.3105 59.5732 45.3105C62.1113 45.3105 64.2379 47.4388 64.2379 49.9789V77.8517C64.3065 80.3919 62.1799 82.5201 59.5732 82.5201ZM59.5732 46.9582C57.9268 46.9582 56.6234 48.2626 56.6234 49.9103V77.7831C56.6234 79.4308 57.9268 80.7351 59.5732 80.7351C61.2195 80.7351 62.5229 79.4308 62.5229 77.7831V49.9789C62.5915 48.3313 61.2195 46.9582 59.5732 46.9582Z" fill="black"/>
<path d="M79.604 77.8517V37.2095C79.604 35.0813 77.889 33.365 75.7624 33.365C73.6359 33.365 71.9209 35.0813 71.9209 37.2095V77.8517C71.9209 79.9799 73.6359 81.6962 75.7624 81.6962C77.889 81.6962 79.604 79.9799 79.604 77.8517Z" fill="#CED0D8"/>
<path d="M75.8312 82.52C73.2245 82.52 71.1665 80.3918 71.1665 77.8517V37.2095C71.1665 34.6007 73.2931 32.5411 75.8312 32.5411C78.3694 32.5411 80.4959 34.6694 80.4959 37.2095V77.8517C80.4959 80.3918 78.3694 82.52 75.8312 82.52ZM75.8312 34.1888C74.1849 34.1888 72.8815 35.4932 72.8815 37.1408V77.783C72.8815 79.4307 74.1849 80.7351 75.8312 80.7351C77.4776 80.7351 78.781 79.4307 78.781 77.783V37.2095C78.781 35.5618 77.4776 34.1888 75.8312 34.1888Z" fill="black"/>
<path d="M92.0204 82.5201C89.4137 82.5201 87.3557 80.3919 87.3557 77.8517V54.7846C87.3557 52.1758 89.4823 50.1162 92.0204 50.1162C94.5586 50.1162 96.6851 52.2444 96.6851 54.7846V77.8517C96.6851 80.3919 94.6272 82.5201 92.0204 82.5201ZM92.0204 51.8325C90.3741 51.8325 89.0707 53.1369 89.0707 54.7846V77.8517C89.0707 79.4994 90.3741 80.8038 92.0204 80.8038C93.6668 80.8038 94.9702 79.4994 94.9702 77.8517V54.7846C94.9702 53.1369 93.6668 51.8325 92.0204 51.8325Z" fill="black"/>
<path d="M31.0361 77.8516V43.3881C31.0361 41.2599 29.3211 39.5436 27.1946 39.5436C25.068 39.5436 23.353 41.2599 23.353 43.3881V77.8516C23.353 79.9798 25.068 81.6961 27.1946 81.6961C29.3211 81.6961 31.0361 79.9798 31.0361 77.8516Z" fill="#CED0D8"/>
<path d="M27.1948 82.52C24.588 82.52 22.53 80.3918 22.53 77.8517V43.3882C22.53 40.7794 24.6566 38.7198 27.1948 38.7198C29.7329 38.7198 31.8595 40.8481 31.8595 43.3882V77.8517C31.8595 80.3918 29.8015 82.52 27.1948 82.52ZM27.1948 40.4362C25.5484 40.4362 24.245 41.7406 24.245 43.3882V77.8517C24.245 79.4993 25.5484 80.8037 27.1948 80.8037C28.8411 80.8037 30.1445 79.4993 30.1445 77.8517V43.3882C30.1445 41.7406 28.8411 40.4362 27.1948 40.4362Z" fill="black"/>
<path d="M47.2253 77.8517V65.8376C47.2253 63.7093 45.5103 61.993 43.3838 61.993C41.2572 61.993 39.5422 63.7093 39.5422 65.8376V77.8517C39.5422 79.9799 41.2572 81.6963 43.3838 81.6963C45.5103 81.6963 47.2253 79.9799 47.2253 77.8517Z" fill="#CED0D8"/>
<path d="M43.384 82.5202C40.7772 82.5202 38.7192 80.392 38.7192 77.8518V65.8377C38.7192 63.2289 40.8458 61.1693 43.384 61.1693C45.9221 61.1693 48.0487 63.2975 48.0487 65.8377V77.8518C48.0487 80.392 45.9907 82.5202 43.384 82.5202ZM43.384 62.817C41.7376 62.817 40.4342 64.1214 40.4342 65.769V77.7832C40.4342 79.4308 41.7376 80.7352 43.384 80.7352C45.0303 80.7352 46.3337 79.4308 46.3337 77.7832V65.8377C46.3337 64.19 45.0303 62.817 43.384 62.817Z" fill="black"/>
<path d="M102.947 90.0907L81.0833 103.614L69.0884 94.6493L53.2217 112.58L40.5436 109.009L22.4753 127.927H102.947V90.0907Z" fill="#CED0D8"/>
<path d="M102.947 128.915H22.4754C22.0958 128.915 21.7162 128.687 21.6403 128.307C21.4884 127.927 21.5644 127.547 21.7921 127.243L39.8603 108.325C40.0881 108.097 40.4677 107.945 40.7714 108.097L52.8422 111.44L68.3292 93.9655C68.6329 93.5856 69.2402 93.5096 69.6198 93.8135L81.0833 102.399L102.416 89.255C102.72 89.103 103.099 89.103 103.403 89.255C103.707 89.4069 103.858 89.7108 103.858 90.0907V127.927C103.934 128.459 103.479 128.915 102.947 128.915ZM24.7529 127.015H102.036V91.8381L81.6147 104.45C81.311 104.678 80.8555 104.602 80.5519 104.374L69.3161 95.9409L53.905 113.187C53.6772 113.491 53.2977 113.567 52.9181 113.491L40.8473 110.072L24.7529 127.015Z" fill="black"/>
<path d="M190.478 79.9374H140.99C137.733 79.9374 135.052 77.2533 135.052 73.9942V32.3916C135.052 29.1324 137.733 26.4484 140.99 26.4484H190.478C193.735 26.4484 196.417 29.1324 196.417 32.3916V73.9942C196.417 77.2533 193.735 79.9374 190.478 79.9374ZM140.99 28.1099C138.627 28.1099 136.648 30.0271 136.648 32.4555V74.0581C136.648 76.4226 138.564 78.4036 140.99 78.4036H190.478C192.841 78.4036 194.821 76.4865 194.821 74.0581V32.3916C194.821 30.0271 192.905 28.046 190.478 28.046H140.99V28.1099Z" fill="black"/>
<path d="M150.632 45.2367C148.142 45.2367 146.162 43.1917 146.162 40.7633C146.162 38.3349 148.206 36.2899 150.632 36.2899C153.059 36.2899 155.102 38.3349 155.102 40.7633C155.102 43.1917 153.123 45.2367 150.632 45.2367ZM150.632 37.8237C149.036 37.8237 147.759 39.1018 147.759 40.6994C147.759 42.297 149.036 43.5752 150.632 43.5752C152.229 43.5752 153.506 42.297 153.506 40.6994C153.506 39.1657 152.229 37.8237 150.632 37.8237Z" fill="black"/>
<path d="M184.54 41.5942H158.551C158.104 41.5942 157.784 41.2107 157.784 40.8273C157.784 40.4439 158.168 40.0604 158.551 40.0604H184.54C184.987 40.0604 185.306 40.4439 185.306 40.8273C185.306 41.2107 184.987 41.5942 184.54 41.5942Z" fill="black"/>
<path d="M150.633 56.9314C152.678 56.9314 154.336 55.2719 154.336 53.2248C154.336 51.1778 152.678 49.5183 150.633 49.5183C148.587 49.5183 146.929 51.1778 146.929 53.2248C146.929 55.2719 148.587 56.9314 150.633 56.9314Z" fill="#CED0D8"/>
<path d="M150.632 57.6984C148.142 57.6984 146.162 55.6534 146.162 53.225C146.162 50.7966 148.206 48.7516 150.632 48.7516C153.059 48.7516 155.102 50.7966 155.102 53.225C155.102 55.6534 153.123 57.6984 150.632 57.6984ZM150.632 50.2853C149.036 50.2853 147.759 51.5634 147.759 53.1611C147.759 54.7587 149.036 56.0368 150.632 56.0368C152.229 56.0368 153.506 54.7587 153.506 53.1611C153.506 51.6273 152.229 50.2853 150.632 50.2853Z" fill="black"/>
<path d="M184.54 54.0557H158.551C158.104 54.0557 157.784 53.6723 157.784 53.2888C157.784 52.9054 158.168 52.522 158.551 52.522H184.54C184.987 52.522 185.306 52.9054 185.306 53.2888C185.306 53.6723 184.987 54.0557 184.54 54.0557Z" fill="black"/>
<path d="M150.632 70.16C148.142 70.16 146.162 68.1151 146.162 65.6867C146.162 63.2582 148.206 61.2133 150.632 61.2133C153.059 61.2133 155.102 63.2582 155.102 65.6867C155.102 68.1151 153.123 70.16 150.632 70.16ZM150.632 62.747C149.036 62.747 147.759 64.0251 147.759 65.6227C147.759 67.2204 149.036 68.4985 150.632 68.4985C152.229 68.4985 153.506 67.2204 153.506 65.6227C153.506 64.089 152.229 62.747 150.632 62.747Z" fill="black"/>
<path d="M184.54 66.5173H158.551C158.104 66.5173 157.784 66.1338 157.784 65.7504C157.784 65.367 158.168 64.9835 158.551 64.9835H184.54C184.987 64.9835 185.306 65.367 185.306 65.7504C185.306 66.1338 184.987 66.5173 184.54 66.5173Z" fill="black"/>
<path d="M146.929 53.9918H124.707C121.578 53.9918 119.024 51.4356 119.024 48.3042V41.9136C119.024 39.6769 117.236 37.8237 114.937 37.8237H86.9684C86.5214 37.8237 86.2021 37.4402 86.2021 37.0568C86.2021 36.6734 86.5853 36.2899 86.9684 36.2899H114.937C118.066 36.2899 120.62 38.8461 120.62 41.9775V48.432C120.62 50.6687 122.408 52.5219 124.707 52.5219H146.929C147.376 52.5219 147.695 52.9054 147.695 53.2888C147.695 53.6723 147.376 53.9918 146.929 53.9918Z" fill="black"/>
<path d="M146.929 66.4534H102.23C101.783 66.4534 101.464 66.07 101.464 65.6865C101.464 65.3031 101.847 64.9197 102.23 64.9197H146.929C147.376 64.9197 147.695 65.3031 147.695 65.6865C147.695 66.07 147.376 66.4534 146.929 66.4534Z" fill="black"/>
<path d="M108.524 182.272C110.787 179.32 110.239 175.132 107.289 172.866C104.339 170.601 100.154 171.15 97.8907 174.102C95.627 177.054 96.1757 181.242 99.1255 183.508C102.075 185.773 106.26 185.224 108.524 182.272Z" fill="white"/>
<path d="M374.207 135.794C371.806 135.794 369.336 135.039 367.278 133.46C362.27 129.616 361.31 122.407 365.152 117.396C367.004 114.993 369.679 113.414 372.766 113.002C375.784 112.59 378.803 113.414 381.204 115.267C383.605 117.121 385.182 119.798 385.594 122.888C386.006 125.909 385.182 128.929 383.33 131.332C381.066 134.215 377.637 135.794 374.207 135.794ZM374.207 114.581C373.795 114.581 373.315 114.581 372.903 114.65C370.296 114.993 368.033 116.297 366.455 118.357C363.162 122.613 363.985 128.723 368.238 132.019C372.492 135.314 378.597 134.49 381.89 130.234C383.467 128.174 384.153 125.634 383.81 123.025C383.467 120.416 382.164 118.151 380.106 116.572C378.391 115.267 376.333 114.581 374.207 114.581Z" fill="white"/>
<path d="M254.021 510.361L269.867 290.948H262.184L248.053 509.949C247.916 511.666 249.288 513.107 251.071 513.107C252.58 513.176 253.884 511.94 254.021 510.361Z" fill="white"/>
<path d="M251.003 514C249.974 514 248.945 513.588 248.19 512.764C247.436 511.94 247.093 510.911 247.161 509.881L261.293 290.88C261.293 290.399 261.704 290.056 262.116 290.056H269.799C270.005 290.056 270.279 290.125 270.416 290.331C270.554 290.537 270.691 290.743 270.622 290.949L254.776 510.361C254.707 512.421 253.061 514 251.003 514ZM262.939 291.841L248.876 510.018C248.808 510.636 249.014 511.185 249.425 511.597C249.837 512.009 250.386 512.284 251.003 512.284C252.101 512.284 253.061 511.391 253.13 510.293L268.907 291.841H262.939Z" fill="black"/>
<path d="M359.869 513.176C361.584 513.176 362.956 511.734 362.888 510.018L348.756 291.017H341.073L356.92 510.43C356.988 511.94 358.292 513.176 359.869 513.176Z" fill="white"/>
<path d="M359.869 514C357.88 514 356.165 512.421 356.027 510.43L340.181 291.017C340.181 290.811 340.25 290.537 340.387 290.399C340.524 290.262 340.799 290.125 341.004 290.125H348.687C349.168 290.125 349.511 290.468 349.511 290.948L363.642 509.949C363.711 510.979 363.368 512.078 362.613 512.833C361.858 513.588 360.967 514 359.869 514ZM341.965 291.841L357.742 510.293C357.811 511.391 358.771 512.284 359.869 512.284C360.486 512.284 361.035 512.078 361.447 511.597C361.858 511.185 362.064 510.567 361.996 510.018L347.933 291.841H341.965Z" fill="black"/>
<path d="M350.54 413.287C352.254 413.287 353.695 411.845 353.695 410.129C353.695 408.413 352.254 406.971 350.54 406.971H260.332C258.617 406.971 257.177 408.413 257.177 410.129C257.177 411.845 258.617 413.287 260.332 413.287H350.54Z" fill="white"/>
<path d="M350.54 414.111H260.332C258.137 414.111 256.354 412.326 256.354 410.129C256.354 407.932 258.137 406.147 260.332 406.147H350.54C352.735 406.147 354.519 407.932 354.519 410.129C354.519 412.326 352.735 414.111 350.54 414.111ZM260.332 407.795C259.098 407.795 258.069 408.825 258.069 410.06C258.069 411.296 259.098 412.326 260.332 412.326H350.54C351.775 412.326 352.804 411.296 352.804 410.06C352.804 408.825 351.775 407.795 350.54 407.795H260.332Z" fill="black"/>
<path d="M361.927 284.495H253.061V294.038H361.927V284.495Z" fill="white"/>
<path d="M361.927 294.93H253.061C252.581 294.93 252.238 294.519 252.238 294.107V284.564C252.238 284.083 252.649 283.74 253.061 283.74H361.927C362.407 283.74 362.75 284.152 362.75 284.564V294.107C362.819 294.519 362.407 294.93 361.927 294.93ZM253.953 293.214H361.104V285.388H253.953V293.214Z" fill="black"/>
<path d="M291.202 15.4467C289.35 15.4467 287.909 13.9364 287.909 12.1514C287.909 10.3664 289.419 8.85608 291.202 8.85608C292.986 8.85608 294.495 10.3664 294.495 12.1514C294.495 13.9364 293.054 15.4467 291.202 15.4467ZM291.202 10.5724C290.31 10.5724 289.624 11.2589 289.624 12.1514C289.624 13.0439 290.31 13.7304 291.202 13.7304C292.094 13.7304 292.78 13.0439 292.78 12.1514C292.78 11.2589 292.094 10.5724 291.202 10.5724Z" fill="black"/>
<path d="M302.247 26.4997C300.394 26.4997 298.954 24.9893 298.954 23.2044C298.954 21.4194 300.463 19.9091 302.247 19.9091C304.03 19.9091 305.539 21.4194 305.539 23.2044C305.539 24.9893 304.099 26.4997 302.247 26.4997ZM302.247 21.6254C301.355 21.6254 300.669 22.3119 300.669 23.2044C300.669 24.0968 301.355 24.7834 302.247 24.7834C303.138 24.7834 303.824 24.0968 303.824 23.2044C303.824 22.3119 303.138 21.6254 302.247 21.6254Z" fill="black"/>
<path d="M291.202 24.0283C290.996 24.0283 290.79 23.9597 290.585 23.7537C290.242 23.4105 290.242 22.8613 290.585 22.518L301.629 11.465C301.972 11.1217 302.521 11.1217 302.864 11.465C303.207 11.8082 303.207 12.3574 302.864 12.7007L291.819 23.7537C291.682 23.9597 291.408 24.0283 291.202 24.0283Z" fill="black"/>
<path d="M284.068 40.9854C283.382 40.9854 282.696 40.7108 282.284 40.1616L279.609 36.9349C279.129 36.3171 278.374 35.9738 277.62 35.9738C273.709 35.9738 270.554 32.8158 270.554 28.9026V7.07119C270.485 3.15801 273.709 0 277.62 0H314.045C317.956 0 321.111 3.15801 321.111 7.07119V28.9026C321.111 32.8158 317.956 35.9738 314.045 35.9738H290.447C289.624 35.9738 288.87 36.3171 288.39 36.9349L285.92 40.0243C285.508 40.6422 284.822 40.9854 284.068 40.9854C284.136 40.9854 284.136 40.9854 284.068 40.9854ZM280.912 35.8365L283.588 39.0632C283.725 39.2691 283.931 39.2691 284.068 39.2691C284.205 39.2691 284.411 39.2005 284.548 38.9945L287.018 35.9052C287.841 34.8754 289.075 34.2575 290.379 34.2575H313.977C316.927 34.2575 319.328 31.8547 319.328 28.9026V7.07119C319.328 4.11914 316.927 1.71631 313.977 1.71631H277.551C274.601 1.71631 272.2 4.11914 272.2 7.07119V28.9026C272.2 31.8547 274.601 34.2575 277.551 34.2575C278.854 34.3262 280.089 34.8754 280.912 35.8365Z" fill="black"/>
<path d="M389.984 98.4475C389.847 98.4475 389.71 98.4475 389.573 98.4475L353.352 95.2895C350.608 95.0149 348.619 92.6121 348.825 89.866L353.558 35.9739C353.833 33.2278 356.234 31.2369 358.978 31.4429L395.198 34.6009C397.942 34.8068 399.931 37.2783 399.725 40.0244L394.992 93.9165C394.855 95.2209 394.237 96.4566 393.208 97.2804C392.248 98.0356 391.15 98.4475 389.984 98.4475ZM358.429 32.9532C356.645 32.9532 355.136 34.3263 354.999 36.1112L350.266 90.0033C350.128 91.9256 351.5 93.5732 353.421 93.7105L389.641 96.8685C390.533 96.9372 391.425 96.6626 392.179 96.0447C392.865 95.4268 393.346 94.603 393.414 93.7105L398.148 39.8184C398.285 37.8962 396.913 36.2485 394.992 36.1112L358.703 32.9532C358.635 32.9532 358.497 32.9532 358.429 32.9532Z" fill="black"/>
<path d="M387.378 50.3221C388.681 50.4594 389.847 49.4983 389.984 48.1939L390.259 44.8986C390.396 43.5942 389.435 42.4271 388.132 42.2898L364.534 40.2302C363.231 40.0929 362.065 41.0541 361.927 42.3584L361.653 45.6538C361.516 46.9582 362.476 48.1252 363.779 48.2626L387.378 50.3221Z" fill="black"/>
<path d="M364.534 59.8649C365.974 60.0022 367.209 58.9037 367.346 57.5307C367.484 56.089 366.386 54.8532 365.014 54.7159L363.436 54.5786C361.996 54.4413 360.761 55.5398 360.624 56.9128C360.486 58.3545 361.584 59.5902 362.956 59.7276L364.534 59.8649Z" fill="black"/>
<path d="M375.372 60.7573C376.813 60.8946 378.048 59.7962 378.185 58.4231C378.322 56.9814 377.225 55.7457 375.853 55.6084L374.275 55.4711C372.834 55.3338 371.599 56.4322 371.462 57.8053C371.325 59.247 372.423 60.4827 373.795 60.62L375.372 60.7573Z" fill="black"/>
<path d="M386.142 61.7185C387.583 61.8558 388.818 60.7574 388.955 59.3843C389.092 57.9426 387.995 56.7069 386.623 56.5696L385.045 56.4323C383.604 56.295 382.37 57.3934 382.232 58.7664C382.095 60.2081 383.193 61.4439 384.565 61.5812L386.142 61.7185Z" fill="black"/>
<path d="M363.779 68.9955C365.22 69.1328 366.455 68.0343 366.592 66.6613C366.729 65.2196 365.631 63.9839 364.259 63.8465L362.682 63.7092C361.241 63.5719 360.006 64.6704 359.869 66.0434C359.732 67.4165 360.829 68.7209 362.201 68.8582L363.779 68.9955Z" fill="black"/>
<path d="M374.549 69.8881C375.99 70.0254 377.225 68.9269 377.362 67.5539C377.499 66.1122 376.402 64.8764 375.03 64.7391L373.452 64.6018C372.011 64.4645 370.776 65.563 370.639 66.936C370.502 68.3777 371.6 69.6134 372.972 69.7507L374.549 69.8881Z" fill="black"/>
<path d="M385.388 70.8492C386.829 70.9865 388.063 69.8881 388.201 68.5151C388.338 67.0734 387.24 65.8376 385.868 65.7003L384.29 65.563C382.85 65.4257 381.615 66.5241 381.478 67.8972C381.341 69.3389 382.438 70.5746 383.81 70.7119L385.388 70.8492Z" fill="black"/>
<path d="M362.956 78.1263C364.397 78.2636 365.632 77.1652 365.769 75.7922C365.906 74.3505 364.808 73.1147 363.436 72.9774L361.859 72.8401C360.418 72.7028 359.183 73.8012 359.046 75.1743C358.909 76.616 360.006 77.8517 361.378 77.989L362.956 78.1263Z" fill="black"/>
<path d="M373.726 79.0189C375.167 79.1562 376.401 78.0578 376.539 76.6847C376.676 75.243 375.578 74.0073 374.206 73.87L372.628 73.7327C371.188 73.5954 369.953 74.6938 369.816 76.0669C369.679 77.5086 370.776 78.7443 372.148 78.8816L373.726 79.0189Z" fill="black"/>
<path d="M383.741 89.1107C385.182 89.248 386.417 88.1496 386.554 86.7765L387.377 77.6458C387.514 76.2041 386.417 74.9683 385.045 74.831L383.467 74.6937C382.026 74.5564 380.792 75.6549 380.654 77.0279L379.831 86.1587C379.694 87.6004 380.792 88.8361 382.164 88.9734L383.741 89.1107Z" fill="#CED0D8"/>
<path d="M362.133 87.2571C363.573 87.3944 364.808 86.2959 364.945 84.9229C365.082 83.4812 363.985 82.2454 362.613 82.1081L361.035 81.9708C359.595 81.8335 358.36 82.932 358.223 84.305C358.085 85.7467 359.183 86.9825 360.555 87.1198L362.133 87.2571Z" fill="black"/>
<path d="M372.972 88.1495C374.412 88.2868 375.647 87.1884 375.784 85.8153C375.921 84.3737 374.824 83.1379 373.452 83.0006L371.874 82.8633C370.433 82.726 369.199 83.8244 369.061 85.1975C368.924 86.6392 370.022 87.8749 371.394 88.0122L372.972 88.1495Z" fill="black"/>
<path d="M219.036 429.146C219.928 430.931 222.055 431.617 223.769 430.725L282.559 399.968C284.617 398.87 285.371 396.261 284.136 394.27L267.947 367.771L223.015 393.584C223.015 393.584 227.405 400.93 224.867 406.147C222.535 410.884 213.342 417.475 219.036 429.146Z" fill="white"/>
<path d="M222.192 431.96C221.711 431.96 221.3 431.892 220.82 431.754C219.653 431.411 218.762 430.587 218.213 429.489C213.548 419.946 218.281 413.699 221.78 409.099C222.74 407.795 223.564 406.696 224.112 405.735C226.445 401.067 222.329 394.133 222.329 394.064C222.192 393.858 222.192 393.652 222.26 393.378C222.329 393.172 222.466 392.966 222.672 392.829L267.604 367.015C268.016 366.809 268.496 366.947 268.77 367.29L284.959 393.79C285.645 394.957 285.851 396.33 285.508 397.634C285.165 398.939 284.273 400.037 283.039 400.655L224.249 431.411C223.563 431.823 222.878 431.96 222.192 431.96ZM219.791 428.802C220.134 429.489 220.682 429.969 221.368 430.175C222.054 430.381 222.74 430.313 223.358 430.038L282.147 399.282C282.97 398.87 283.519 398.183 283.725 397.291C283.93 396.398 283.862 395.575 283.382 394.751L267.673 368.938L224.181 393.927C225.278 396.055 227.885 401.959 225.621 406.49C225.073 407.657 224.112 408.825 223.152 410.129C219.859 414.591 215.606 420.221 219.791 428.802Z" fill="black"/>
<path d="M218.35 428.39C218.076 428.39 217.733 428.253 217.596 427.91C217.39 427.498 217.527 426.949 217.939 426.743L282.833 391.936C283.245 391.73 283.793 391.867 283.999 392.279C284.205 392.691 284.068 393.24 283.656 393.446L218.762 428.253C218.624 428.322 218.487 428.39 218.35 428.39Z" fill="black"/>
<path d="M233.648 243.304C224.593 251.817 174.584 256.142 172.252 286.898C169.576 322.597 214.714 404.362 214.714 404.362C214.714 404.362 227.405 406.559 240.027 401.547C262.322 392.691 276.933 374.292 276.933 374.292L246.27 307.219C246.27 307.219 296.347 297.127 306.911 279.484C312.605 270.01 310.958 229.436 310.958 229.436L238.244 230.534L241.468 231.084C241.399 231.084 240.576 236.713 233.648 243.304Z" fill="black"/>
<path d="M262.459 509.949C262.596 511.734 264.037 513.107 265.82 513.107H319.327C321.591 513.107 323.581 511.597 324.129 509.4C325.296 504.938 326.942 496.356 326.668 484.067C326.325 465.119 326.668 457.293 326.668 457.293L273.16 465.119C273.16 465.119 276.865 474.799 273.16 483.312C269.731 491.413 261.361 495.464 262.459 509.949Z" fill="white"/>
<path d="M319.328 514H265.821C263.625 514 261.705 512.284 261.567 510.018C260.813 499.72 264.792 494.365 268.222 489.628C269.799 487.431 271.309 485.44 272.406 483.038C275.905 474.937 272.406 465.531 272.406 465.463C272.337 465.188 272.337 464.913 272.475 464.707C272.612 464.502 272.818 464.296 273.092 464.296L326.599 456.469C326.874 456.401 327.079 456.538 327.285 456.675C327.491 456.881 327.56 457.087 327.56 457.362C327.56 457.43 327.148 465.394 327.56 484.067C327.765 496.082 326.256 504.594 324.953 509.606C324.335 512.215 322.003 514 319.328 514ZM274.395 465.875C275.287 468.621 277.208 476.516 274.052 483.724C272.955 486.333 271.309 488.53 269.731 490.658C266.232 495.395 262.665 500.201 263.351 509.881C263.42 511.185 264.586 512.284 265.889 512.284H319.396C321.248 512.284 322.895 511.048 323.375 509.263C324.404 505.212 326.188 496.631 325.913 484.205C325.639 469.238 325.776 461.138 325.913 458.391L274.395 465.875Z" fill="black"/>
<path d="M262.391 508.508C261.91 508.508 261.567 508.096 261.567 507.684C261.567 507.203 261.91 506.791 262.391 506.791L324.816 506.105C325.296 506.105 325.639 506.517 325.639 506.929C325.639 507.409 325.296 507.821 324.816 507.821L262.391 508.508Z" fill="black"/>
<path d="M291.888 494.846C279.334 494.846 272.063 493.198 270.348 489.834C269.593 488.392 270.074 487.019 270.485 486.47C270.76 486.058 271.308 485.99 271.651 486.264C272.063 486.539 272.132 487.088 271.857 487.431C271.789 487.5 271.377 488.186 271.857 489.079C272.543 490.383 276.042 493.267 293.466 493.129C306.774 492.992 312.605 489.765 315.212 487.019C317.818 484.273 321.111 482.351 324.747 481.458L326.393 481.047C326.873 480.909 327.285 481.184 327.422 481.664C327.559 482.145 327.285 482.557 326.805 482.694L325.158 483.106C321.866 483.93 318.847 485.646 316.446 488.186C313.634 491.138 307.391 494.64 293.466 494.777C292.986 494.846 292.437 494.846 291.888 494.846Z" fill="black"/>
<path d="M262.39 355.413C259.578 385.895 267.124 472.877 267.124 472.877C267.124 472.877 280.432 477.752 299.845 477.752C316.927 477.752 334.213 472.877 334.213 472.877C334.213 472.877 323.375 362.141 323.855 357.885C324.335 353.628 351.089 312.849 348.276 279.964C345.464 247.08 338.398 233.967 338.398 233.967L276.522 223.738C276.522 223.738 274.395 238.498 273.572 250.787C273.366 254.288 273.229 257.584 273.229 260.261C273.572 276.806 279.952 279.14 279.952 284.77C279.952 286.555 278.511 291.155 276.385 297.539C271.857 311.682 264.311 334.474 262.39 355.413Z" fill="black"/>
<path d="M276.384 298.432C276.316 298.432 276.179 298.432 276.11 298.363C275.63 298.226 275.424 297.745 275.561 297.265C277.619 290.949 279.06 286.349 279.06 284.701C279.06 282.848 278.237 281.337 277.139 279.278C275.218 275.708 272.543 270.765 272.337 260.192C272.337 259.712 272.68 259.3 273.16 259.3C273.572 259.3 274.052 259.643 274.052 260.124C274.258 270.284 276.796 275.021 278.648 278.454C279.814 280.582 280.775 282.367 280.775 284.701C280.775 286.555 279.403 290.88 277.208 297.745C277.139 298.226 276.796 298.432 276.384 298.432Z" fill="#EBEDEE"/>
<path d="M348.208 291.91C348.002 291.91 347.728 291.841 347.591 291.635C347.179 291.154 336.889 279.484 336.272 260.33C336.272 259.986 336.478 259.643 336.821 259.506L342.377 257.515C342.857 257.377 343.337 257.583 343.475 258.064C343.612 258.545 343.406 259.025 342.926 259.162L337.987 260.947C338.741 279.072 348.688 290.399 348.825 290.537C349.168 290.88 349.1 291.429 348.757 291.772C348.62 291.841 348.414 291.91 348.208 291.91Z" fill="#EBEDEE"/>
<path d="M265.752 182.478C286.468 157.351 299.502 136.481 279.197 124.947C273.435 121.652 254.913 122.201 245.309 132.774C228.983 150.692 215.263 173.69 213.205 173.347C211.764 173.072 209.706 166.756 207.374 158.518C197.29 166.825 183.845 168.953 170.674 168.953C174.035 186.528 181.169 210.763 195.849 219.207C224.386 235.546 246.75 205.545 265.752 182.478Z" fill="#CED0D8"/>
<path d="M219.173 189.137C218.83 189.137 218.419 188.862 218.35 188.519C216.086 180.35 211.422 172.729 211.353 172.661C211.079 172.249 211.216 171.699 211.627 171.493C212.039 171.287 212.588 171.356 212.794 171.768C212.999 172.111 217.664 179.663 219.996 188.039C220.134 188.519 219.859 189 219.379 189.068C219.31 189.068 219.242 189.137 219.173 189.137Z" fill="black"/>
<path d="M160.11 133.872C160.316 139.639 163.814 147.877 167.93 149.319C167.93 149.319 168.479 157.763 170.605 168.953C183.776 168.953 197.222 166.825 207.306 158.518C204.836 149.868 201.886 139.158 198.868 131.263C196.536 125.222 191.802 120.141 187.412 115.61C180.346 108.333 173.006 100.507 169.714 101.537C163.814 103.39 178.769 119.043 178.769 119.043C178.769 119.043 174.241 116.709 171.977 122.201C171.977 122.201 165.186 120.759 165.46 128.105C165.529 128.174 159.835 127.487 160.11 133.872Z" fill="white"/>
<path d="M170.605 169.777C170.194 169.777 169.851 169.502 169.782 169.091C167.998 159.617 167.313 151.927 167.107 149.937C162.854 147.877 159.424 139.845 159.218 133.941C159.149 131.675 159.698 129.89 161.001 128.792C162.168 127.693 163.677 127.419 164.637 127.35C164.706 125.29 165.392 123.711 166.627 122.682C168.273 121.309 170.399 121.309 171.497 121.377C172.252 119.73 173.349 118.631 174.721 118.151C175.27 117.945 175.819 117.876 176.368 117.807C173.075 114.1 166.627 106.342 167.587 102.704C167.724 102.086 168.204 101.193 169.439 100.85C172.8 99.8203 178.22 105.038 186.795 113.894L188.029 115.13C192.625 119.867 197.29 124.947 199.691 131.057C202.229 137.648 204.699 146.229 206.825 153.781C207.306 155.36 207.717 156.87 208.129 158.381C208.266 158.861 207.992 159.342 207.511 159.411C207.031 159.548 206.551 159.273 206.482 158.793C206.071 157.282 205.591 155.772 205.179 154.193C203.053 146.641 200.583 138.128 198.045 131.606C195.781 125.84 191.253 120.828 186.795 116.228L185.56 114.993C179.729 109.02 172.526 101.605 169.919 102.429C169.37 102.566 169.233 102.841 169.165 103.116C168.479 105.862 175.064 114.031 179.317 118.562C179.592 118.837 179.66 119.318 179.386 119.661C179.112 120.004 178.7 120.073 178.288 119.935C178.288 119.935 176.711 119.18 175.201 119.73C174.172 120.141 173.281 121.103 172.663 122.613C172.526 123.025 172.114 123.231 171.703 123.162C171.703 123.162 169.165 122.682 167.587 123.986C166.627 124.81 166.146 126.251 166.215 128.174C166.215 128.448 166.146 128.654 165.941 128.86C165.735 128.998 165.529 129.135 165.255 129.066C165.255 129.066 163.265 128.86 162.03 130.027C161.139 130.851 160.727 132.087 160.796 133.872C161.001 139.364 164.363 147.259 168.067 148.563C168.41 148.701 168.616 148.975 168.616 149.319C168.616 149.387 169.233 157.832 171.291 168.816C171.36 169.296 171.085 169.708 170.605 169.846C170.742 169.777 170.674 169.777 170.605 169.777Z" fill="black"/>
<path d="M174.653 146.641C173.418 146.641 172.114 146.092 170.948 144.994C166.695 141.08 164.774 128.792 164.706 128.311C164.637 127.831 164.98 127.419 165.392 127.35C165.872 127.281 166.284 127.625 166.352 128.037C166.352 128.174 168.273 140.257 172.046 143.758C173.418 144.994 174.721 145.268 175.956 144.582C177.191 143.827 177.808 142.316 177.602 141.424C177.465 140.943 177.74 140.463 178.22 140.394C178.7 140.257 179.18 140.531 179.249 141.012C179.729 142.728 178.631 144.994 176.848 146.092C176.162 146.435 175.407 146.641 174.653 146.641Z" fill="black"/>
<path d="M181.032 143.071C180.758 143.071 180.552 143.071 180.278 143.003C176.985 142.385 175.682 138.883 173.418 133.117C170.399 125.359 171.223 122.132 171.223 121.995C171.36 121.514 171.84 121.24 172.252 121.377C172.732 121.514 173.006 121.926 172.869 122.407C172.869 122.476 172.252 125.428 174.996 132.499C177.191 138.266 178.288 140.874 180.552 141.286C181.924 141.561 182.884 140.462 183.227 139.982C184.119 138.746 184.599 136.481 183.433 134.558C181.169 130.714 180.552 127.281 180.003 124.535C179.592 122.27 179.249 120.622 178.22 119.661C177.877 119.318 177.808 118.837 178.151 118.425C178.494 118.082 178.974 118.013 179.386 118.356C180.895 119.661 181.238 121.652 181.718 124.192C182.198 126.801 182.816 130.096 184.942 133.666C186.452 136.206 185.903 139.158 184.668 140.943C183.708 142.385 182.404 143.071 181.032 143.071Z" fill="black"/>
<path d="M169.165 150.348C168.753 150.348 168.273 150.28 167.724 150.211C167.244 150.142 166.97 149.662 167.038 149.181C167.107 148.701 167.587 148.426 168.067 148.495C169.302 148.769 170.262 148.563 170.811 148.083C171.772 147.122 171.497 145.199 171.497 145.199C171.429 144.719 171.772 144.307 172.252 144.238C172.732 144.17 173.144 144.513 173.212 144.994C173.212 145.131 173.624 147.808 171.977 149.387C171.291 150.005 170.331 150.348 169.165 150.348Z" fill="black"/>
<path d="M180.826 133.323C184.736 135.588 185.491 137.03 185.903 137.854L194.752 129.547C194.752 129.547 194.134 129.959 189.675 127.762C182.884 124.398 174.79 123.505 175.201 127.968C175.476 130.302 178.288 131.881 180.826 133.323Z" fill="white"/>
<path d="M185.903 138.678C185.834 138.678 185.765 138.678 185.765 138.678C185.491 138.609 185.285 138.472 185.148 138.197C184.874 137.648 184.325 136.343 180.415 134.078L180.003 133.872C177.465 132.43 174.652 130.714 174.378 128.036C174.241 126.732 174.721 125.634 175.681 124.947C178.563 122.956 185.148 124.604 190.019 127.007C193.243 128.586 194.272 128.723 194.477 128.723C194.82 128.654 195.163 128.723 195.369 128.998C195.644 129.341 195.644 129.821 195.301 130.165L186.451 138.472C186.314 138.609 186.108 138.678 185.903 138.678ZM179.317 125.702C178.151 125.702 177.259 125.908 176.71 126.32C176.436 126.526 176.024 126.938 176.093 127.83C176.299 129.684 178.631 131.057 180.895 132.362L181.307 132.636C184.119 134.284 185.422 135.52 186.108 136.481L192.9 130.027C192.077 129.753 190.91 129.272 189.264 128.448C185.697 126.732 181.924 125.702 179.317 125.702Z" fill="black"/>
<path d="M175.75 152.683C175.407 152.683 175.064 152.477 174.927 152.133C173.83 149.181 174.721 146.573 175.75 144.925C176.025 144.513 176.505 144.376 176.917 144.65C177.328 144.925 177.465 145.405 177.191 145.817C176.025 147.74 175.819 149.662 176.505 151.584C176.642 151.996 176.436 152.545 176.025 152.683C175.956 152.683 175.888 152.683 175.75 152.683Z" fill="black"/>
<path d="M299.365 138.266C304.579 145.543 338.604 152.82 344.709 127.075C350.471 102.978 324.747 98.2414 318.779 80.2545C308.763 49.9788 289.35 52.107 289.35 52.107C283.039 52.7936 282.764 72.7027 294.632 87.1197C306.568 101.468 283.588 116.228 299.365 138.266Z" fill="black"/>
<path d="M277.757 157.145C302.109 158.038 322.895 138.746 315.28 119.112C307.666 99.4772 259.304 92.2687 254.433 102.772C254.433 102.772 256.697 111.697 252.924 126.252C249.22 140.875 253.473 156.321 277.757 157.145Z" fill="black"/>
<path d="M228.64 223.189C228.434 225.523 232.413 226.69 232.413 226.69C232.413 226.69 232.893 228.338 234.265 229.436C235.637 230.534 250.66 228.818 252.787 229.436C254.913 230.054 264.723 230.672 264.723 230.672C276.934 240.077 337.918 257.927 354.793 236.782C371.669 215.637 355.754 154.674 336.477 135.863C317.201 117.052 276.454 121.789 276.454 121.789C276.454 121.789 265.958 119.936 252.718 127.213C248.122 129.753 244.555 133.803 242.566 138.678C233.03 161.608 232.276 187.97 226.994 213.783C226.239 216.049 225.69 218.383 225.142 220.717L226.445 220.58C226.994 222.228 228.64 223.189 228.64 223.189Z" fill="#CED0D8"/>
<path d="M284.959 204.859C287.498 216.529 287.703 228.338 286.194 240.077C309.381 247.217 342.925 251.611 354.793 236.782C368.101 220.168 361.036 178.908 348.07 152.889C342.925 148.564 336.34 147.259 327.354 148.907C310.547 151.996 312.262 166.139 311.919 171.219C311.644 176.299 315.829 204.378 315.829 204.378C306.294 204.309 295.318 204.653 284.959 204.859Z" fill="#CED0D8"/>
<path d="M227.611 222.365L227.748 222.502C227.817 222.571 227.885 222.639 227.954 222.708C228.022 222.777 228.091 222.845 228.16 222.845C228.228 222.914 228.228 222.914 228.297 222.983C228.365 223.051 228.365 223.051 228.434 223.051C228.503 223.12 228.571 223.12 228.571 223.189C228.64 223.257 228.64 223.257 228.64 223.257C228.434 225.591 232.413 226.759 232.413 226.759C232.413 226.759 232.893 228.406 234.265 229.505C235.637 230.603 250.66 228.887 252.787 229.505C252.992 229.573 253.267 229.642 253.541 229.642C253.884 229.711 254.227 229.779 254.639 229.779C256.217 229.985 258.343 230.191 260.264 230.397C260.401 230.397 260.607 230.397 260.744 230.466C260.95 230.466 261.224 230.534 261.43 230.534C261.499 230.534 261.567 230.534 261.636 230.534C261.773 230.534 261.91 230.534 262.047 230.603C262.116 230.603 262.185 230.603 262.253 230.603C262.39 230.603 262.528 230.603 262.665 230.672C263.831 230.74 264.586 230.809 264.586 230.809C268.221 233.624 276.179 237.125 286.057 240.214C287.498 228.475 287.36 216.667 284.822 204.996C271.994 205.27 259.989 205.339 252.649 204.103C249.562 203.554 243.732 204.584 238.381 208.085C232.962 211.586 227.611 215.362 226.445 218.383C226.102 219.275 226.17 220.031 226.376 220.717C226.582 221.404 226.993 221.953 227.405 222.365C227.542 222.296 227.542 222.296 227.611 222.365Z" fill="white"/>
<path d="M315.898 205.27C315.486 205.27 315.143 204.996 315.074 204.584C315.074 204.447 312.262 190.785 311.301 176.848C310.341 162.637 313.771 157.694 313.908 157.488C314.183 157.076 314.731 157.008 315.074 157.282C315.486 157.557 315.555 158.106 315.28 158.45C315.28 158.518 312.056 163.187 312.948 176.642C313.84 190.51 316.652 204.035 316.652 204.172C316.721 204.653 316.446 205.064 315.966 205.202C316.035 205.27 315.966 205.27 315.898 205.27Z" fill="black"/>
<path d="M232.413 227.582C232.276 227.582 232.07 227.514 231.933 227.445C231.521 227.17 231.452 226.621 231.727 226.278C232.001 225.866 239.136 215.362 249.906 214.195C250.386 214.126 250.797 214.47 250.866 214.95C250.935 215.431 250.592 215.843 250.111 215.911C240.096 216.941 233.236 227.102 233.167 227.239C232.962 227.445 232.687 227.582 232.413 227.582Z" fill="black"/>
<path d="M228.64 224.081C228.503 224.081 228.434 224.081 228.297 224.013C227.885 223.807 227.611 223.326 227.817 222.914C228.023 222.502 232.207 212.136 245.996 208.566C246.476 208.428 246.887 208.703 247.024 209.184C247.162 209.664 246.887 210.145 246.407 210.213C233.511 213.577 229.463 223.463 229.395 223.532C229.326 223.875 228.983 224.081 228.64 224.081Z" fill="black"/>
<path d="M298.954 134.558L294.22 102.772C294.22 102.772 270.622 107.098 266.849 119.043V136.343C266.849 136.343 266.232 139.364 265.409 143.895C274.807 148.632 285.714 147.602 295.798 143.827C297.513 139.707 298.679 136.343 298.954 134.558Z" fill="white"/>
<path d="M295.798 143.895C285.783 147.671 274.807 148.701 265.409 143.964C263.145 156.802 259.784 181.86 266.849 184.4C274.395 187.078 289.281 159.685 295.798 143.895Z" fill="black"/>
<path d="M266.85 137.236C266.369 137.236 266.026 136.824 266.026 136.412V119.112C266.026 119.043 266.026 118.906 266.095 118.837C270.005 106.548 293.123 102.155 294.083 101.949C294.289 101.88 294.563 101.949 294.769 102.086C294.975 102.223 295.112 102.429 295.112 102.635L299.846 134.421C299.914 134.902 299.571 135.314 299.091 135.382C298.611 135.451 298.199 135.108 298.131 134.627L293.535 103.802C289.281 104.695 271.034 109.226 267.741 119.18V136.344C267.741 136.824 267.33 137.236 266.85 137.236Z" fill="black"/>
<path d="M303.55 96.6624C311.37 79.3621 305.471 59.3842 285.989 56.1576C266.575 52.9309 258.755 60.2081 254.433 67.7598C253.884 68.7209 243.114 105.038 257.657 117.464C272.2 129.89 295.73 113.963 303.55 96.6624Z" fill="white"/>
<path d="M269.868 122.75C265.066 122.75 260.744 121.24 257.108 118.151C241.742 105.038 253.473 67.6911 253.678 67.4165C257.588 60.5512 265.203 51.901 286.126 55.4023C294.426 56.7754 300.806 61.1691 304.51 68.103C308.9 76.3413 308.832 87.1883 304.304 97.0743C304.098 97.4862 303.618 97.6921 303.138 97.4862C302.727 97.2802 302.521 96.7997 302.727 96.3191C306.98 86.8451 307.117 76.6159 302.932 68.8582C299.502 62.4049 293.603 58.3544 285.783 57.05C265.889 53.7547 258.755 61.8556 255.119 68.2403C253.884 70.9177 244.623 105.313 258.137 116.846C264.723 122.407 274.052 122.407 283.793 116.846C284.205 116.64 284.754 116.777 284.959 117.189C285.165 117.601 285.028 118.151 284.616 118.356C279.609 121.24 274.532 122.75 269.868 122.75Z" fill="black"/>
<path d="M290.722 90.8271C292.299 102.086 295.798 113.208 295.798 113.208C302.041 102.017 312.948 93.2985 310.067 73.2521C306.911 51.4893 293.26 51.2833 275.013 50.5282C262.596 50.0476 251.826 50.4595 246.681 62.405C242.977 70.9865 247.985 81.2844 251.072 83.2067C260.127 88.8361 268.839 84.7857 274.258 77.7831C279.677 70.7806 281.324 67.2793 281.186 73.8013C280.775 86.2274 290.722 90.8271 290.722 90.8271Z" fill="black"/>
<path d="M315.28 135.725C317.338 134.902 319.053 133.94 320.768 133.185C330.715 128.997 335.586 135.245 337.506 133.048C351.295 117.876 311.439 95.7697 294.769 101.262C294.769 101.262 292.711 106.754 291.545 117.944C290.448 129.203 297.033 143.14 315.28 135.725Z" fill="black"/>
<path d="M297.651 89.4539C291.888 86.9138 289.35 92.8865 289.35 92.8865L292.574 105.656C299.64 104.214 303.413 91.9941 297.651 89.4539Z" fill="white"/>
<path d="M291.682 98.5161C291.545 98.5161 291.408 98.5161 291.271 98.4475C290.859 98.2415 290.722 97.6923 290.928 97.2804C291.133 96.8685 293.26 93.0239 296.21 93.0239C296.69 93.0239 297.033 93.4358 297.033 93.8478C297.033 94.2597 296.621 94.6716 296.21 94.6716C294.563 94.6716 292.917 97.1431 292.505 97.9669C292.3 98.3788 292.025 98.5161 291.682 98.5161Z" fill="black"/>
<path d="M276.111 90.6897C276.454 88.8361 275.699 87.1198 274.327 86.8452C272.955 86.5706 271.583 87.875 271.24 89.6599C270.897 91.4449 271.652 93.2298 273.024 93.5044C274.327 93.7791 275.768 92.5433 276.111 90.6897Z" fill="black"/>
<path d="M260.058 87.5316C260.401 85.678 259.646 83.9617 258.274 83.6871C256.903 83.4125 255.531 84.7169 255.188 86.5018C254.845 88.3554 255.599 90.0718 256.971 90.3464C258.274 90.6896 259.646 89.3852 260.058 87.5316Z" fill="black"/>
<path d="M273.71 81.9707C274.327 81.2156 275.013 80.8723 275.836 80.6663C276.659 80.4604 277.483 80.529 278.306 80.735C279.06 80.941 279.815 81.3529 280.432 81.8334C280.707 82.0394 280.981 82.314 281.255 82.5886C281.53 82.8632 281.736 83.2065 281.941 83.4811C282.147 83.8244 282.01 84.2363 281.667 84.4422C281.461 84.5795 281.324 84.5795 281.118 84.5109H281.05C280.707 84.4422 280.432 84.3049 280.158 84.1676C279.883 84.099 279.609 83.9617 279.335 83.8244C278.786 83.6184 278.237 83.4811 277.757 83.3438C277.208 83.2751 276.728 83.2065 276.248 83.1378C275.973 83.1378 275.699 83.0692 275.425 83.0692C275.15 83.0692 274.807 83.0692 274.533 83.0005L274.19 82.9319C273.847 82.8632 273.572 82.52 273.641 82.1767C273.572 82.108 273.641 82.0394 273.71 81.9707Z" fill="black"/>
<path d="M259.235 81.0097C258.961 81.0097 258.686 80.8038 258.481 80.7351C258.275 80.5978 258.138 80.4605 258 80.3232C257.863 80.1859 257.795 80.0486 257.657 79.8426C257.52 79.7053 257.383 79.4994 256.971 79.4307H256.903C256.697 79.3621 256.56 79.1561 256.56 78.9502C256.697 78.4696 257.109 78.0577 257.657 77.8517C258.206 77.6458 258.755 77.7831 259.235 77.9204C259.715 78.0577 260.058 78.3323 260.333 78.6069C260.607 78.8815 260.813 79.2248 260.95 79.7053C261.087 80.3232 260.744 80.9411 260.127 81.0784C259.99 81.0784 259.853 81.147 259.784 81.0784L259.235 81.0097Z" fill="black"/>
<path d="M259.784 99.6831C259.578 99.6831 259.441 99.6145 259.304 99.5458C258.069 98.6533 257.383 97.5549 257.314 96.3192C257.177 94.8088 257.932 93.1611 259.578 91.4448C259.921 91.1016 260.47 91.1016 260.813 91.3762C261.156 91.7195 261.156 92.2687 260.881 92.6119C259.647 93.9163 259.029 95.1521 259.098 96.1819C259.166 96.937 259.578 97.5549 260.401 98.1728C260.813 98.4474 260.881 98.9966 260.607 99.3399C260.333 99.5458 260.058 99.6831 259.784 99.6831Z" fill="black"/>
<path d="M266.232 106.892C265.958 106.892 265.684 106.892 265.409 106.754C264.929 106.617 264.723 106.136 264.792 105.725C264.929 105.244 265.409 105.038 265.821 105.107C266.507 105.313 268.428 104.763 270.074 103.802C270.486 103.596 271.034 103.734 271.24 104.146C271.446 104.557 271.309 105.107 270.897 105.313C270.417 105.656 268.085 106.892 266.232 106.892Z" fill="black"/>
<path d="M325.639 247.56C319.122 247.56 312.811 246.874 307.94 246.05C289.007 243.029 270.76 236.233 264.517 231.564C262.939 231.427 254.639 230.878 252.649 230.26C251.826 230.054 248.122 230.191 244.898 230.397C237.969 230.74 234.814 230.809 233.853 230.123C232.687 229.23 232.07 228.063 231.864 227.376C230.835 226.965 228.16 225.797 227.954 223.669C226.582 222.708 224.867 220.649 225.896 217.971C227.199 214.607 232.687 210.831 238.175 207.261C243.732 203.623 249.837 202.593 253.061 203.142C261.636 204.653 276.385 204.241 292.025 203.897C304.716 203.554 317.887 203.279 327.697 204.035C328.177 204.103 328.52 204.515 328.52 204.927C328.52 205.339 328.04 205.751 327.628 205.751C317.887 204.996 304.785 205.339 292.094 205.614C276.385 206.026 261.567 206.369 252.787 204.858C249.768 204.309 244.075 205.476 239.067 208.703C235.431 211.106 228.64 215.5 227.474 218.589C226.582 220.923 229.12 222.433 229.189 222.433C229.463 222.571 229.669 222.914 229.6 223.257C229.463 224.562 231.864 225.591 232.756 225.866C233.03 225.935 233.236 226.141 233.305 226.484C233.305 226.484 233.716 227.857 234.882 228.75C235.706 229.161 241.125 228.887 244.761 228.681C249.288 228.475 252.101 228.338 253.13 228.612C254.776 229.093 262.185 229.642 264.929 229.848C265.066 229.848 265.272 229.917 265.409 230.054C271.308 234.585 289.418 241.382 308.283 244.402C321.385 246.462 344.778 248.178 354.244 236.301C354.519 235.958 355.068 235.889 355.479 236.164C355.822 236.439 355.891 236.988 355.616 237.4C349.099 245.363 337.026 247.56 325.639 247.56Z" fill="black"/>
<path d="M240.302 207.879C239.822 207.879 239.479 207.536 239.479 207.055C239.273 201.975 238.107 197.307 236.117 192.707C229.463 177.741 234.196 169.434 238.312 162.088C238.655 161.47 238.998 160.852 239.341 160.234C242.222 154.948 242.291 149.525 242.291 149.456C242.291 148.975 242.703 148.632 243.114 148.632C243.526 148.632 243.937 149.044 243.937 149.456C243.937 149.662 243.869 155.429 240.782 161.058C240.439 161.676 240.096 162.294 239.753 162.981C235.637 170.326 231.315 177.878 237.626 192.089C239.753 196.895 240.919 201.769 241.125 207.055C241.125 207.467 240.782 207.879 240.302 207.879Z" fill="black"/>
<path d="M165.803 226.759C169.027 226.759 171.634 224.15 171.634 220.923C171.634 217.696 169.027 215.088 165.803 215.088H119.499C116.275 215.088 113.668 217.696 113.668 220.923C113.668 224.15 116.275 226.759 119.499 226.759H165.803Z" fill="white"/>
<path d="M165.804 227.582H119.499C115.795 227.582 112.777 224.562 112.777 220.855C112.777 217.147 115.795 214.127 119.499 214.127H165.804C169.508 214.127 172.526 217.147 172.526 220.855C172.526 224.562 169.508 227.582 165.804 227.582ZM119.499 215.843C116.755 215.843 114.492 218.108 114.492 220.855C114.492 223.601 116.755 225.866 119.499 225.866H165.804C168.547 225.866 170.811 223.601 170.811 220.855C170.811 218.108 168.547 215.843 165.804 215.843H119.499Z" fill="black"/>
<path d="M173.075 215.019C176.299 215.019 178.905 212.41 178.905 209.183C178.905 205.957 176.299 203.348 173.075 203.348H126.77C123.546 203.348 120.939 205.957 120.939 209.183C120.939 212.41 123.546 215.019 126.77 215.019H173.075Z" fill="white"/>
<path d="M173.075 215.843H126.771C123.066 215.843 120.048 212.822 120.048 209.115C120.048 205.408 123.066 202.387 126.771 202.387H173.075C176.779 202.387 179.797 205.408 179.797 209.115C179.797 212.822 176.779 215.843 173.075 215.843ZM126.771 204.103C124.027 204.103 121.763 206.369 121.763 209.115C121.763 211.861 124.027 214.127 126.771 214.127H173.075C175.819 214.127 178.082 211.861 178.082 209.115C178.082 206.369 175.819 204.103 173.075 204.103H126.771Z" fill="black"/>
<path d="M265.752 226.759H108.592V235.409H265.752V226.759Z" fill="white"/>
<path d="M265.752 236.301H108.592C108.112 236.301 107.769 235.889 107.769 235.478V226.827C107.769 226.347 108.18 226.004 108.592 226.004H265.752C266.232 226.004 266.575 226.415 266.575 226.827V235.478C266.644 235.889 266.232 236.301 265.752 236.301ZM109.484 234.585H264.929V227.651H109.484V234.585Z" fill="black"/>
<path d="M114.423 510.362L134.248 235.409H126.085L108.386 509.95C108.249 511.666 109.621 513.108 111.405 513.108C113.051 513.176 114.354 511.941 114.423 510.362Z" fill="white"/>
<path d="M111.473 514C110.444 514 109.415 513.588 108.661 512.764C107.906 512.009 107.563 510.911 107.632 509.881L125.33 235.34C125.33 234.86 125.742 234.516 126.153 234.516H134.317C134.522 234.516 134.797 234.585 134.934 234.791C135.071 234.997 135.208 235.203 135.14 235.409L115.315 510.361C115.178 512.421 113.463 514 111.473 514ZM126.976 236.301L109.347 510.018C109.278 510.636 109.484 511.185 109.895 511.597C110.307 512.009 110.856 512.284 111.473 512.284C112.571 512.284 113.531 511.391 113.6 510.293L133.356 236.233H126.976V236.301Z" fill="black"/>
<path d="M262.939 513.176C264.654 513.176 266.026 511.734 265.957 510.018L248.259 235.477H240.096L259.921 510.43C260.058 511.94 261.361 513.176 262.939 513.176Z" fill="white"/>
<path d="M262.939 514C260.95 514 259.235 512.421 259.098 510.43L239.204 235.477C239.204 235.271 239.273 234.997 239.41 234.86C239.547 234.722 239.821 234.585 240.027 234.585H248.191C248.671 234.585 249.014 234.928 249.014 235.409L266.712 509.949C266.781 510.979 266.369 512.078 265.683 512.833C264.997 513.588 263.968 514 262.939 514ZM240.988 236.301L260.744 510.361C260.813 511.46 261.773 512.352 262.871 512.352C263.488 512.352 264.037 512.146 264.448 511.666C264.86 511.254 265.066 510.636 264.997 510.087L247.367 236.37H240.988V236.301Z" fill="black"/>
<path d="M254.158 434.294C255.873 434.294 257.314 432.853 257.314 431.137C257.314 429.42 255.873 427.979 254.158 427.979H121.145C119.43 427.979 117.99 429.42 117.99 431.137C117.99 432.853 119.43 434.294 121.145 434.294H254.158Z" fill="white"/>
<path d="M254.158 435.118H121.145C118.95 435.118 117.167 433.333 117.167 431.136C117.167 428.939 118.95 427.155 121.145 427.155H254.158C256.354 427.155 258.137 428.939 258.137 431.136C258.137 433.333 256.354 435.118 254.158 435.118ZM121.145 428.871C119.91 428.871 118.881 429.901 118.881 431.136C118.881 432.372 119.91 433.402 121.145 433.402H254.158C255.393 433.402 256.422 432.372 256.422 431.136C256.422 429.901 255.393 428.871 254.158 428.871H121.145Z" fill="black"/>
<path d="M260.881 221.816H230.217V226.759H265.82C265.751 224.013 263.556 221.816 260.881 221.816Z" fill="white"/>
<path d="M265.752 227.582H230.149C229.669 227.582 229.326 227.171 229.326 226.759V221.816C229.326 221.335 229.738 220.992 230.149 220.992H260.813C263.968 220.992 266.575 223.601 266.575 226.759C266.644 227.239 266.232 227.582 265.752 227.582ZM231.041 225.866H264.792C264.38 224.013 262.734 222.639 260.813 222.639H231.041V225.866Z" fill="black"/>
<path d="M144.95 226.758H230.218C233.991 226.758 236.803 223.326 236.049 219.619L224.593 163.804C223.907 160.372 220.889 157.969 217.459 157.969H132.122C128.349 157.969 125.536 161.401 126.291 165.109L137.747 220.923C138.501 224.287 141.451 226.758 144.95 226.758Z" fill="white"/>
<path d="M230.217 227.582H144.949C141.108 227.582 137.746 224.836 136.923 221.06L125.467 165.246C125.055 163.255 125.536 161.196 126.839 159.617C128.142 158.038 130.063 157.145 132.121 157.145H217.389C221.231 157.145 224.592 159.891 225.416 163.667L236.872 219.481C237.283 221.472 236.803 223.532 235.5 225.111C234.128 226.69 232.275 227.582 230.217 227.582ZM132.121 158.861C130.612 158.861 129.171 159.548 128.211 160.715C127.251 161.882 126.839 163.461 127.182 164.972L138.638 220.786C139.255 223.807 141.931 225.935 144.949 225.935H230.217C231.727 225.935 233.167 225.248 234.128 224.081C235.088 222.914 235.5 221.335 235.157 219.825L223.701 164.01C223.083 160.99 220.408 158.861 217.389 158.861H132.121Z" fill="black"/>
<path d="M180.415 199.572C184.394 199.572 186.932 196.346 186.109 192.364C185.285 188.382 181.444 185.155 177.465 185.155C173.486 185.155 170.948 188.382 171.771 192.364C172.595 196.346 176.436 199.572 180.415 199.572Z" fill="white"/>
<path d="M180.415 200.396C176.093 200.396 171.772 196.826 170.88 192.501C170.4 190.304 170.88 188.245 172.183 186.666C173.418 185.155 175.27 184.263 177.465 184.263C181.787 184.263 186.109 187.833 187.001 192.158C187.481 194.355 187.001 196.414 185.697 197.993C184.462 199.572 182.61 200.396 180.415 200.396ZM177.465 186.048C175.819 186.048 174.447 186.666 173.487 187.764C172.526 188.931 172.183 190.51 172.526 192.158C173.281 195.728 176.779 198.68 180.346 198.68C181.993 198.68 183.365 198.062 184.325 196.963C185.286 195.796 185.629 194.217 185.286 192.57C184.6 188.931 181.032 186.048 177.465 186.048Z" fill="black"/>
<path d="M119.979 513.657C119.979 513.657 149.751 449.192 118.264 417.681H97.1361H94.3235H73.1951C41.7768 449.123 71.4801 513.657 71.4801 513.657H95.6955H119.979Z" fill="#CED0D8"/>
<path d="M97.1362 418.573C96.656 418.573 96.313 418.23 96.313 417.749C96.313 417.475 96.313 410.198 101.321 402.097C105.985 394.682 115.932 385.071 137.129 381.776C137.472 381.707 137.747 381.844 137.952 382.119C138.158 382.393 138.158 382.737 138.021 383.011C137.952 383.217 127.594 404.568 105.368 403.195C104.888 403.195 104.545 402.783 104.545 402.303C104.545 401.822 104.956 401.479 105.437 401.479C123.067 402.577 132.876 388.503 135.62 383.766C120.254 386.513 108.935 393.103 102.761 402.989C97.9594 410.678 97.9594 417.749 97.9594 417.818C98.028 418.161 97.6164 418.573 97.1362 418.573Z" fill="black"/>
<path d="M97.1363 416.102C96.7247 416.102 96.3131 415.759 96.3131 415.347C96.3131 415.003 93.432 383.286 68.5992 374.361C68.8736 378.686 71.2059 393.721 91.4426 399.488C91.9228 399.625 92.1286 400.106 92.06 400.518C91.9228 400.998 91.4426 401.204 91.031 401.136C66.4726 394.133 66.8842 373.331 66.8842 373.125C66.8842 372.851 67.0214 372.576 67.2272 372.439C67.433 372.302 67.7074 372.233 67.9818 372.302C94.9411 380.952 98.0281 414.797 98.0281 415.141C98.0967 415.621 97.6851 416.033 97.2735 416.033C97.2049 416.102 97.1363 416.102 97.1363 416.102Z" fill="black"/>
<path d="M81.29 414.317C71.1374 414.317 63.4543 408.275 63.3171 408.138C63.0427 407.932 62.9741 407.657 62.9741 407.314C63.0427 407.04 63.2485 406.765 63.5229 406.628C82.5934 399.625 93.2948 409.168 93.775 409.58C93.9808 409.786 94.0494 410.06 94.0494 410.335C94.0494 410.609 93.8436 410.815 93.6378 410.953C89.3847 413.424 85.1315 414.317 81.29 414.317ZM65.7867 407.726C69.4224 410.129 80.1924 415.827 91.717 410.129C88.7673 408.138 79.7122 403.195 65.7867 407.726Z" fill="black"/>
<path d="M97.1361 416.102C96.7245 416.102 96.3815 415.827 96.3129 415.415C96.1071 414.317 91.3052 388.503 100.703 379.167C100.909 378.961 101.183 378.892 101.458 378.961C101.732 379.029 101.938 379.167 102.075 379.441C102.144 379.579 108.386 392.348 98.3709 399.762C97.9593 400.037 97.4791 399.968 97.2047 399.557C96.9303 399.145 96.9989 398.664 97.4105 398.389C104.682 393.035 102.35 384.522 101.115 381.364C93.569 390.906 98.0279 414.866 98.0965 415.072C98.1651 415.552 97.8907 415.964 97.4105 416.102C97.2733 416.102 97.2047 416.102 97.1361 416.102Z" fill="black"/>
<path d="M87.738 505.762C76.8994 505.762 68.3246 504.869 67.57 504.801C67.0898 504.732 66.7468 504.32 66.8154 503.84C66.884 503.359 67.2956 503.016 67.7758 503.084C68.1874 503.153 106.26 506.929 125.124 498.347C125.536 498.141 126.085 498.347 126.291 498.759C126.496 499.171 126.291 499.72 125.879 499.926C115.521 504.595 100.086 505.762 87.738 505.762Z" fill="black"/>
<path d="M113.188 485.441C83.8967 485.441 59.8185 474.182 59.5441 474.044C59.1325 473.838 58.9267 473.358 59.1325 472.877C59.3383 472.465 59.8185 472.259 60.2987 472.465C60.6417 472.603 93.9807 488.118 129.652 482.42C130.132 482.351 130.544 482.695 130.612 483.106C130.681 483.587 130.338 483.999 129.926 484.068C124.233 485.097 118.608 485.441 113.188 485.441Z" fill="black"/>
<path d="M95.4211 484.205C94.9409 484.205 94.5979 483.793 94.5979 483.381C94.5979 482.9 95.0095 482.489 95.4211 482.489C95.6269 482.489 114.766 482.214 131.161 472.603C131.573 472.397 132.121 472.534 132.327 472.877C132.533 473.289 132.464 473.838 132.053 474.044C115.246 483.93 95.6269 484.205 95.4211 484.205Z" fill="black"/>
<path d="M118.265 417.681H73.1953C73.1953 417.681 97.4107 431.274 118.265 417.681Z" fill="black"/>
</svg>
