<svg width="272" height="408" viewBox="0 0 272 408" fill="none" xmlns="http://www.w3.org/2000/svg">
<path d="M43.0057 267.653C36.7725 364.343 30.5394 461.034 24.2966 557.725C49.4029 557.127 74.5091 556.529 99.6153 555.93C101.854 441.206 102.549 384.693 102.732 354.27C102.77 347.207 102.886 325.227 103.417 325.227C104.044 325.227 104.903 355.968 105.125 363.398C106.138 397.053 109.39 454.473 119.55 557.841L190.546 554.57C180.665 458.468 170.785 362.356 160.905 266.254C121.605 266.726 82.3053 267.189 43.0057 267.662V267.653Z" fill="#18181D"/>
<path d="M100.175 289.449C99.4994 292.894 98.7275 296.329 97.8881 299.745C97.2223 302.466 96.4987 305.187 95.6399 307.859C95.0128 309.818 94.3759 311.883 93.2277 313.61C92.5137 314.681 94.2408 315.684 94.9452 314.613C96.132 312.819 96.8267 310.657 97.4829 308.622C98.3513 305.958 99.0653 303.247 99.7407 300.526C100.609 297.024 101.4 293.502 102.085 289.97C102.327 288.716 100.406 288.176 100.165 289.44L100.175 289.449Z" fill="white"/>
<path d="M107.373 289.295C106.659 296.165 106.013 303.247 106.495 310.156C106.611 311.767 106.717 313.581 107.508 315.038C108.126 316.167 109.843 315.164 109.226 314.035C108.685 313.031 108.579 311.478 108.492 310.272C108.338 308.187 108.348 306.084 108.396 304C108.483 299.996 108.753 295.991 109.11 291.997C109.187 291.099 109.274 290.202 109.361 289.305C109.496 288.031 107.499 288.041 107.363 289.305L107.373 289.295Z" fill="white"/>
<path d="M148.226 173.075C147.802 177.504 147.107 190.887 155.578 203.855C163.037 215.26 175.889 223.731 189.253 224.735C221.007 227.118 244.888 186.583 251.546 174.976C258.29 163.214 262.941 149.522 262.941 149.522C265.614 141.658 267.196 134.827 268.171 129.771C268.518 129.578 269.473 128.98 269.994 127.764C270.766 125.96 269.907 124.3 269.782 124.069C269.782 124.069 272.918 98.1422 266.501 99.2808C260.085 100.419 261.947 108.679 261.947 108.679C261.947 108.679 244.145 123.046 243.006 122.843C242.765 122.805 242.148 122.583 241.443 122.255C239.34 121.28 238.838 120.286 238.066 120.074C235.451 119.35 231.795 126.529 231.795 126.529C228.398 135.3 222.908 146.618 213.944 158.245C208.396 165.443 202.713 171.203 197.609 175.719C196.21 173.856 194.811 171.994 193.421 170.142C190.97 166.62 189.205 163.716 188.018 161.67C187.342 160.503 186.995 159.846 186.281 158.92C183.956 155.89 181.003 154.231 179.749 153.69C173.718 151.124 165.7 157.048 160.374 160.908C154.517 165.153 150.619 169.775 148.216 173.065L148.226 173.075Z" fill="white"/>
<path d="M147.223 173.075C145.795 188.262 151.43 203.498 162.757 213.783C168.846 219.302 176.353 223.451 184.448 225.072C191.115 226.404 197.976 225.902 204.411 223.741C216.781 219.582 226.941 210.368 235.21 200.555C241.675 192.884 247.214 184.499 252.202 175.815C259.4 163.291 264.746 149.445 267.997 135.367C268.402 133.602 268.779 131.826 269.126 130.041L268.673 130.639C269.763 130.003 270.612 129.028 271.027 127.832C271.403 126.722 271.519 124.783 270.737 123.779C270.554 123.547 270.699 124.068 270.786 124.011C270.824 123.982 270.815 123.74 270.824 123.692C270.901 123.287 270.911 122.862 270.959 122.447C271.297 119.07 271.509 115.674 271.548 112.278C271.587 108.881 271.625 104.819 270.39 101.452C269.975 100.323 269.367 99.1552 268.258 98.5763C266.772 97.8044 264.794 98.5377 263.539 99.4447C260.664 101.529 260.278 105.716 260.992 108.949L261.253 107.974C258.29 110.367 255.309 112.721 252.308 115.056C250.205 116.697 248.082 118.327 245.921 119.881C245.168 120.421 244.415 120.962 243.624 121.454C243.402 121.589 243.132 121.705 242.92 121.849C242.794 121.936 243.084 121.849 242.891 121.859C243.267 121.84 242.804 121.733 242.515 121.618C241.521 121.232 240.623 120.682 239.794 120.006C239.302 119.611 238.838 119.196 238.202 119.061C236.995 118.8 235.867 119.534 235.008 120.305C233.339 121.801 231.94 123.953 230.975 125.979C230.232 127.542 229.682 129.221 228.987 130.803C228.157 132.723 227.269 134.624 226.343 136.496C224.201 140.828 221.818 145.035 219.193 149.098C212.989 158.708 205.473 167.411 196.924 174.995L198.487 175.198C195.293 170.942 192.167 166.697 189.456 162.114C188.308 160.174 187.246 158.274 185.664 156.653C184.294 155.253 182.682 154.018 180.936 153.131C177.26 151.259 173.226 152.204 169.647 153.854C165.43 155.803 161.522 158.679 157.885 161.554C153.89 164.719 150.388 168.434 147.377 172.544C146.615 173.577 148.352 174.58 149.095 173.548C154.141 166.658 160.924 160.966 168.344 156.768C171.586 154.935 175.87 152.996 179.566 154.675C183.261 156.353 185.538 159.383 187.507 162.751C190.266 167.479 193.47 171.84 196.75 176.211C197.146 176.741 197.792 176.877 198.313 176.413C212.758 163.59 224.153 147.563 231.573 129.732C232.538 127.426 233.435 125.342 234.96 123.326C235.481 122.631 236.581 121.029 237.594 121.01C238.086 121.01 238.501 121.541 238.858 121.82C239.697 122.476 240.604 122.978 241.588 123.383C242.573 123.789 243.142 123.962 244.049 123.49C244.695 123.152 245.303 122.718 245.901 122.303C247.966 120.865 249.964 119.331 251.961 117.797C255.56 115.028 259.12 112.21 262.652 109.364C262.931 109.142 262.98 108.717 262.912 108.389C262.488 106.469 262.507 103.729 263.761 101.963C264.504 100.921 266.202 99.9947 267.196 100.255C267.679 100.381 268.161 101.182 268.431 101.876C269.473 104.52 269.502 107.627 269.541 110.415C269.589 113.571 269.435 116.726 269.184 119.871C269.097 120.923 269.01 121.965 268.894 123.007C268.837 123.576 268.74 123.991 268.914 124.532C269.28 125.632 269.531 126.625 268.866 127.716C268.248 128.729 267.331 128.816 267.09 130.051C266.598 132.55 266.038 135.049 265.421 137.519C263.298 145.981 260.384 154.154 256.843 162.123C250.639 176.085 242.235 189.555 232.132 201.037C221.017 213.667 205.627 225.632 187.787 223.548C176.671 222.255 166.424 215.829 159.371 207.299C152.317 198.77 148.882 188.079 148.998 177.205C149.008 175.805 149.085 174.416 149.22 173.027C149.336 171.753 147.348 171.753 147.223 173.027V173.075Z" fill="#18181D"/>
<path d="M246.799 142.228C242.804 140.057 238.819 137.876 234.824 135.705C234.39 135.464 234.217 134.933 234.429 134.48L253.07 93.6269C253.302 93.1155 253.929 92.9129 254.412 93.1927C256.756 94.5435 258.84 95.4891 263.858 98.6346C264.552 99.0688 265.122 99.3968 265.411 99.5609C265.074 100.941 264.736 102.32 264.398 103.7C263.018 108.66 261.195 114.102 258.773 119.872C255.039 128.758 250.784 136.207 246.799 142.228Z" fill="white"/>
<path d="M247.3 141.369C244.965 140.095 242.62 138.822 240.285 137.548C239.118 136.911 237.95 136.274 236.773 135.638C236.561 135.522 235.345 135.01 235.316 134.924C235.278 134.798 235.606 134.296 235.654 134.171L236.339 132.666L241.559 121.232C245.428 112.751 249.297 104.269 253.167 95.788C253.36 95.3634 253.514 94.852 253.775 94.4661C254.074 94.0029 254.006 94.1187 254.662 94.4854C258.116 96.4055 261.474 98.48 264.909 100.429L264.456 99.3002C260.741 114.42 254.527 128.729 245.94 141.726C245.226 142.797 246.953 143.801 247.657 142.73C256.331 129.597 262.623 115.105 266.376 99.8308C266.482 99.4063 266.308 98.9239 265.922 98.7019C262.613 96.8204 259.39 94.8038 256.061 92.9705C254.778 92.2662 253.176 91.4364 252.221 93.1249C252.134 93.2793 252.076 93.453 251.999 93.6074L247.551 103.362L234.737 131.44C234.351 132.28 233.927 133.119 233.58 133.978C232.566 136.477 235.963 137.461 237.632 138.368C240.517 139.941 243.412 141.514 246.297 143.087C247.426 143.704 248.429 141.977 247.3 141.369Z" fill="#18181D"/>
<path d="M246.982 145.151C246.982 145.151 244.84 137.741 254.026 129.201C253.524 128.623 249.24 123.644 250.022 120.373C250.128 119.948 250.35 118.983 251.16 118.472C252.009 117.932 253.042 118.182 253.823 118.375C256.728 119.118 258.947 121.511 258.947 121.511C258.194 118.588 257.712 116.098 257.403 114.236C256.844 110.869 256.805 109.315 257.712 108.601C258.329 108.109 259.188 108.167 259.661 108.196C261.417 108.302 262.507 109.547 262.749 109.836C265.093 114.584 267.438 119.331 269.773 124.078" fill="white"/>
<path d="M247.947 144.891C247.619 143.733 247.735 142.035 248.024 140.645C248.922 136.39 251.633 132.83 254.74 129.906C255.155 129.52 255.087 128.893 254.74 128.497C253.09 126.606 250.919 123.876 250.929 121.241C250.938 116.89 256.747 120.624 258.242 122.216C258.947 122.959 260.153 122.187 259.912 121.241C259.226 118.559 258.638 115.838 258.223 113.088C258.078 112.114 257.818 110.898 258.059 109.923C258.281 109.016 259.333 109.074 260.105 109.258C260.973 109.47 261.677 110.001 262.102 110.763C262.912 112.229 263.597 113.793 264.34 115.298C265.865 118.395 267.389 121.483 268.914 124.58C269.483 125.728 271.201 124.725 270.631 123.577C268.711 119.688 266.801 115.809 264.881 111.921C264.263 110.657 263.8 109.296 262.681 108.399C261.687 107.598 260.452 107.154 259.169 107.183C256.544 107.231 255.859 109.296 256.033 111.544C256.303 114.989 257.123 118.453 257.972 121.782L259.641 120.807C257.268 118.289 250.639 114.603 249.124 119.813C248.082 123.412 251.093 127.359 253.312 129.906V128.497C249.973 131.643 247.04 135.551 246.085 140.115C245.737 141.793 245.535 143.733 246.008 145.421C246.355 146.656 248.285 146.126 247.928 144.891H247.947Z" fill="#18181D"/>
<path d="M262.806 126.153C262.188 124.744 261.503 123.326 260.654 122.042C260.365 121.599 260.046 121.155 259.66 120.798C259.275 120.441 258.628 120.383 258.252 120.798C257.904 121.184 257.837 121.83 258.252 122.206C258.387 122.322 258.503 122.457 258.618 122.592C258.647 122.621 258.754 122.766 258.647 122.621C258.541 122.477 258.647 122.621 258.676 122.66C258.744 122.756 258.811 122.853 258.879 122.949C259.159 123.364 259.41 123.789 259.651 124.223C260.085 125.014 260.49 125.815 260.867 126.635C260.944 126.809 261.021 126.973 261.098 127.147C261.31 127.629 262.044 127.774 262.459 127.504C262.96 127.185 263.038 126.655 262.816 126.143L262.806 126.153Z" fill="#18181D"/>
<path d="M13.3455 162.539C26.9696 126.172 57.8941 100.69 92.2342 97.824C119.174 95.5758 147.397 107.318 160.5 121.357C162.053 123.017 166.125 127.639 170.631 133.756C178.649 144.621 183.888 154.54 187.159 161.535C182.682 168.434 177.018 176.143 169.917 184.055C164.147 190.491 158.435 195.924 153.138 200.487C155.627 209.413 159.052 222.738 162.14 239.17C166.723 263.562 168.923 275.883 164.6 281.875C157.508 291.698 143.894 286.796 98.5059 288.147C58.3572 289.343 52.0469 293.676 45.2831 287.201C43.6331 286.516 41.9928 285.831 40.3429 285.146C44.7234 255.843 49.104 226.53 53.4942 197.226C40.1113 185.667 26.7284 174.108 13.3551 162.548L13.3455 162.539Z" fill="#474850"/>
<path d="M73.3319 162.23C71.9136 168.482 68.2277 174.021 64.7831 179.327C61.6568 184.152 58.0868 188.677 54.1597 192.865C53.2817 193.801 54.6904 195.209 55.5684 194.273C59.6113 189.96 63.2875 185.29 66.5005 180.331C70.0417 174.879 73.7951 169.177 75.252 162.76C75.5319 161.506 73.6117 160.975 73.3319 162.23Z" fill="#18181D"/>
<path d="M137.882 154.501C142.871 170.055 147.85 185.609 152.838 201.153C153.224 202.369 155.154 201.848 154.758 200.622C149.77 185.068 144.791 169.515 139.803 153.97C139.417 152.755 137.487 153.276 137.882 154.501Z" fill="#18181D"/>
<path d="M70.0801 103.488C72.7529 111.959 78.9377 118.897 87.1778 122.284C96.3249 126.047 107.431 124.59 114.426 117.257C118.749 112.731 120.688 106.373 119.984 100.188C119.839 98.9238 117.842 98.9141 117.987 100.188C118.575 105.369 117.292 110.724 113.944 114.796C111.29 118.028 107.585 120.286 103.6 121.463C94.1443 124.242 83.6464 120.267 77.4132 112.857C74.9817 109.972 73.1292 106.556 71.9906 102.957C71.6047 101.741 69.6845 102.262 70.0705 103.488H70.0801Z" fill="white"/>
<path d="M142.958 109.846C147.628 112.22 152.037 115.134 155.993 118.578C160.065 122.12 163.529 126.23 166.868 130.456C171.769 136.651 175.938 143.289 179.894 150.111C182.537 154.675 185.249 159.21 188.008 163.706C188.674 164.796 190.401 163.802 189.726 162.703C185.567 155.919 181.708 148.953 177.51 142.199C175.002 138.156 172.31 134.239 169.386 130.475C166.086 126.22 162.68 122.013 158.714 118.357C154.305 114.294 149.307 110.859 143.961 108.138C142.823 107.56 141.81 109.277 142.958 109.856V109.846Z" fill="#18181D"/>
<path d="M49.0459 113.262C40.9313 119.37 33.5403 126.423 27.4326 134.567C22.0485 141.755 17.9092 149.802 14.2426 157.975C12.4287 162.018 10.7498 166.128 9.22526 170.296C8.78142 171.503 10.7112 172.024 11.1454 170.827C16.8189 155.283 24.3642 139.835 35.8849 127.6C40.2269 122.988 44.9838 118.791 50.0398 114.989C51.0529 114.227 50.059 112.49 49.0363 113.272L49.0459 113.262Z" fill="#18181D"/>
<path d="M13.3455 162.538C13.3455 162.538 1.8538 189.787 1.53539 201.674C1.20733 213.561 2.54849 305.032 4.25633 314.121C5.99312 323.374 8.47287 337.163 12.9113 337.423C14.3104 337.5 15.5455 336.217 16.3849 335.088C16.5393 335.976 16.7612 337.23 17.07 338.735C17.6199 341.37 17.8322 341.977 18.1699 342.585C18.691 343.531 19.4918 344.978 21.0646 345.287C22.2996 345.528 23.747 345.007 24.4996 344.013C25.8794 342.19 24.8373 339.208 25.0592 339.16C25.3004 339.112 25.3873 343.039 27.9442 344.978C29.5266 346.184 31.3599 346.107 31.6107 346.088C32.1897 346.049 33.3958 345.982 34.1677 345.133C34.9299 344.293 34.8914 343.106 34.737 341.717C34.2835 337.616 33.087 334.21 33.2414 334.152C33.4151 334.085 34.3993 338.446 37.4386 339.584C37.6413 339.662 39.3588 340.279 40.5745 339.44C41.9253 338.504 41.8675 336.313 41.8192 334.461C41.7903 333.361 41.6648 332.753 41.2789 330.708C40.4587 326.298 39.6096 321.329 39.2816 319.64C39.1754 319.071 39.3105 319.804 38.1334 312.433C38.1334 312.433 37.8246 310.532 37.8439 307.676C37.8535 305.022 38.1526 304.897 38.2395 304.878C38.6158 304.8 39.1754 306.18 39.436 306.778C40.0631 308.226 40.0824 309.065 40.6517 311.506C41.192 313.822 41.4236 314.179 41.5587 314.382C42.3499 315.511 43.9226 316.582 45.0998 316.215C46.1129 315.897 46.6726 314.555 47.1164 311.825C49.0462 300.034 44.4147 290.453 43.8358 289.314C43.5849 288.648 43.2279 287.655 42.8999 286.419C41.6359 281.672 41.8964 277.764 42.0315 276.028C43.199 260.493 45.2638 249.252 45.2638 249.252C46.5664 242.112 47.6182 234.933 48.8725 227.793C50.8891 216.33 52.8189 204.926 54.8355 193.598" fill="white"/>
<path d="M12.3901 162.268C10.5569 166.63 8.86831 171.058 7.26661 175.516C4.61318 182.897 1.94043 190.53 0.850118 198.326C0.34838 201.915 0.483468 205.591 0.493117 209.21C0.502765 214.671 0.551014 220.132 0.618556 225.593C0.782586 240.134 1.0238 254.675 1.3615 269.216C1.64132 281.576 1.90184 293.955 2.59655 306.296C2.78953 309.77 3.06935 313.166 3.71582 316.582C4.59386 321.233 5.48156 325.932 6.94818 330.447C7.79728 333.062 9.09022 337.336 12.0814 338.263C14.2716 338.938 16.047 337.163 17.2531 335.58L15.4295 335.339C15.9988 338.678 16.3268 344.023 19.8004 345.866C21.7398 346.898 24.4222 346.117 25.5511 344.235C26.0625 343.367 26.2458 342.335 26.2362 341.341C26.2362 340.646 25.9467 339.864 26.0335 339.179L25.7441 339.884L25.7634 339.855L24.7888 340.115H24.8082C24.6055 339.971 24.4126 339.816 24.2099 339.662C24.0363 339.421 24.2099 339.565 24.2099 339.691C24.2099 339.845 24.2871 340.038 24.3161 340.192C24.4125 340.617 24.509 341.042 24.6248 341.456C24.9529 342.566 25.4257 343.647 26.1397 344.563C27.5581 346.397 29.8545 347.284 32.1413 347.034C33.3377 346.898 34.5535 346.445 35.2289 345.374C36.0008 344.149 35.8464 342.634 35.6727 341.264C35.4797 339.7 35.1903 338.157 34.8333 336.632C34.6982 336.072 34.5631 335.522 34.4184 334.963C34.3798 334.799 34.3605 334.451 34.2544 334.316C34.0807 334.075 34.4184 334.094 34.1 334.654L32.9711 335.108C32.7877 335.05 32.5272 334.654 32.4693 334.799C32.4597 334.837 32.4983 334.606 32.4693 334.799C32.45 334.915 32.6237 335.185 32.6623 335.301C32.8842 335.841 33.1158 336.391 33.3956 336.912C33.9938 338.041 34.785 339.092 35.8271 339.835C38.1332 341.485 41.6453 341.196 42.533 338.166C43.4207 335.137 42.4751 331.74 41.9252 328.759C41.3559 325.613 40.7866 322.468 40.227 319.312C39.6191 315.916 38.9533 312.462 38.8472 309.008C38.8182 308.072 38.7989 307.116 38.8761 306.18C38.8858 306.026 38.9919 305.688 38.963 305.544L39.0112 305.38C39.2814 305.476 38.0656 305.901 38.2876 305.785C37.6797 306.094 37.9498 305.65 38.0753 306.19C38.1042 306.315 38.2104 306.46 38.2586 306.576C38.384 306.856 38.5095 307.136 38.6156 307.415C38.8665 308.072 39.0305 308.737 39.1752 309.422C39.7252 311.999 39.9182 314.797 42.2339 316.418C49.2679 321.319 48.6697 304.945 48.332 301.838C47.9943 298.731 47.3188 295.634 46.2864 292.662C45.7654 291.177 45.0321 289.768 44.5207 288.291C41.9348 280.939 43.1409 273.21 43.9707 265.646C44.54 260.464 45.2058 255.283 46.0934 250.14C48.9302 233.698 51.6705 217.238 54.5458 200.806C54.9511 198.471 55.366 196.145 55.7809 193.81C56.0028 192.556 54.0827 192.016 53.8607 193.28C52.2494 202.32 50.7056 211.371 49.1328 220.422C47.5601 229.453 46.1513 238.523 44.54 247.545C43.9128 251.057 43.3628 254.588 42.89 258.129C42.4172 261.67 41.9927 265.347 41.6357 268.965C41.2787 272.583 40.8445 275.912 40.9217 279.386C40.9989 282.859 41.5681 286.593 42.9769 289.806C43.633 291.283 44.2409 292.74 44.733 294.283C45.6978 297.352 46.3154 300.536 46.5083 303.759C46.6338 305.843 46.5855 307.946 46.354 310.021C46.1899 311.439 46.1127 313.716 45.1865 314.893C44.3953 315.897 42.8032 314.507 42.34 313.726C41.7997 312.809 41.5778 311.13 41.3366 309.992C41.0568 308.66 40.7866 307.396 40.2463 306.142C39.8603 305.254 39.2428 303.556 37.9691 303.884C37.313 304.048 37.0911 304.723 36.985 305.312C36.6858 306.991 36.8113 308.795 36.9271 310.484C37.1007 312.983 37.6121 315.453 37.9981 317.923C38.5963 321.715 39.3103 325.488 39.9954 329.26C40.2752 330.804 40.6805 332.367 40.7866 333.94C40.8734 335.204 41.1532 337.414 40.1787 338.407C39.2042 339.401 37.342 338.591 36.5025 337.79C35.6631 336.989 35.0648 335.899 34.621 334.828C34.3605 334.22 34.2158 333.371 33.4921 333.149C33.0772 333.023 32.5851 333.226 32.3632 333.602C32.0737 334.114 32.2956 334.712 32.4307 335.243C32.6912 336.285 32.9614 337.317 33.1737 338.359C33.4824 339.826 33.8105 341.36 33.8105 342.865C33.8105 344.37 33 344.978 31.5913 345.046C29.3624 345.142 27.6449 343.772 26.8344 341.765C26.4485 340.8 26.4581 338.552 25.3002 338.147C24.9818 338.041 24.5573 338.147 24.3257 338.407C23.631 339.179 24.2485 340.675 24.2099 341.601C24.1134 343.763 21.7302 345.297 20.0127 343.531C19.2504 342.749 18.7969 341.698 18.5171 340.665C18.0057 338.736 17.6584 336.748 17.3207 334.779C17.1566 333.824 15.9505 333.94 15.497 334.538C14.8988 335.32 13.8567 336.603 12.7182 336.343C12.1875 336.217 11.763 335.773 11.4252 335.378C10.3542 334.104 9.72704 332.435 9.17705 330.881C7.62359 326.501 6.7359 321.879 5.85786 317.325C5.16314 313.726 4.82545 310.802 4.60352 306.991C3.91846 295.19 3.65795 283.351 3.37813 271.541C3.04043 257.213 2.78955 242.894 2.61587 228.565C2.50973 219.64 2.24922 210.686 2.50009 201.761C2.58693 198.596 3.27199 195.47 4.03425 192.411C4.99913 188.532 6.18592 184.702 7.45957 180.91C9.40863 175.101 11.5796 169.35 13.905 163.677C14.0304 163.368 14.1559 163.069 14.2813 162.77C14.783 161.593 12.8533 161.072 12.3612 162.239L12.3901 162.268Z" fill="#18181D"/>
<path d="M11.6663 316.803C12.1681 320.595 13.1329 324.243 14.0496 327.948C14.5127 329.82 15.2171 331.856 15.246 333.805C15.2653 335.31 13.9724 336.091 12.6505 336.458C11.4154 336.805 11.9365 338.726 13.1812 338.378C14.8215 337.925 16.4328 336.96 17.0214 335.271C17.61 333.583 16.9539 331.566 16.5679 329.916C15.5644 325.545 14.2426 321.251 13.654 316.794C13.4899 315.539 11.4926 315.52 11.6567 316.794L11.6663 316.803Z" fill="#18181D"/>
<path d="M18.3046 314.796C20.1861 322.766 22.0677 330.736 23.9588 338.716C24.2579 339.961 26.178 339.44 25.8789 338.185C23.9974 330.215 22.1159 322.245 20.2247 314.266C19.9256 313.021 18.0055 313.542 18.3046 314.796Z" fill="#18181D"/>
<path d="M27.5098 312.076C29.0054 319.92 30.6457 327.745 32.4114 335.532C32.6912 336.786 34.621 336.256 34.3315 335.001C32.5658 327.215 30.9352 319.389 29.4299 311.545C29.1887 310.281 27.2686 310.821 27.5098 312.076Z" fill="#18181D"/>
<path d="M124.201 78.6611C120.824 84.1416 116.366 87.5283 113.23 89.487L113.954 98.7885C114.253 105.967 110.77 112.635 104.874 115.915C97.2325 120.161 89.3591 116.552 88.0179 115.934C78.7647 111.679 76.5069 102.059 76.256 100.892C77.5103 94.5141 78.7647 88.1266 80.0287 81.7487C78.4559 79.4137 76.613 76.1717 75.1946 72.0613C74.0657 68.7903 73.4964 65.8185 73.207 63.4063C72.5702 63.2712 68.9518 62.4703 66.9545 59.0643C66.5975 58.4468 65.0537 55.8127 65.9607 52.7347C66.3756 51.3163 67.1571 50.3321 67.6685 49.7918C67.6203 39.4579 67.5624 29.1144 67.5141 18.7805L123.516 16.3876C126.218 28.1109 127.385 38.0588 127.925 45.3244C129.682 68.8868 125.783 76.0848 124.191 78.6707L124.201 78.6611Z" fill="white"/>
<path d="M71.123 52.7251C71.9335 52.9277 72.3966 53.1207 73.1106 53.6127C73.9887 54.2206 74.6544 55.1469 74.9632 56.16C75.2334 57.0381 75.2623 57.8582 75.1658 58.8135C75.1369 59.074 75.1851 58.7459 75.1465 58.9293C75.1272 59.0064 75.1176 59.0836 75.1079 59.1608C75.079 59.3055 75.0501 59.4406 75.0211 59.5757C74.9825 59.7301 74.9439 59.8845 74.886 60.0389C74.7123 60.5503 75.0886 61.1292 75.5807 61.2643C76.1307 61.4186 76.6324 61.0809 76.8061 60.5695C77.3561 58.9485 77.3657 56.9898 76.8061 55.3881C75.986 53.0724 74.0176 51.3742 71.6537 50.7953C70.409 50.4962 69.8783 52.4163 71.123 52.7154V52.7251Z" fill="#18181D"/>
<path d="M72.6378 67.7962C74.1333 72.8908 76.3333 77.7538 79.17 82.2502L79.0735 81.4783C78.1569 86.1483 77.2306 90.8183 76.314 95.4883C76.0824 96.6558 75.8508 97.8234 75.6289 98.9909C75.4842 99.7242 75.214 100.496 75.3298 101.239C75.407 101.731 75.571 102.233 75.7157 102.706C77.1727 107.54 80.106 111.959 84.2357 114.902C88.3653 117.845 94.2704 119.379 99.4904 118.655C106.64 117.671 111.87 112.49 113.829 105.706C114.243 104.278 114.514 102.812 114.707 101.336C114.832 100.371 114.957 99.3189 114.996 98.6339C115.179 95.6331 114.562 92.4586 114.253 89.4771C114.118 88.2131 112.121 88.2035 112.256 89.4771C112.565 92.4104 113.076 95.4594 113.008 98.4216C113.008 98.5663 113.008 98.7207 113.018 98.4795C113.008 98.6339 112.97 98.7882 112.96 98.9426C112.912 99.4444 112.873 99.9461 112.815 100.448C112.671 101.76 112.449 103.063 112.13 104.346C111.33 107.53 109.863 110.569 107.441 112.837C104.45 115.645 100.378 116.947 96.316 116.832C90.5942 116.668 85.1427 114.111 81.534 109.634C79.9709 107.694 78.7648 105.436 77.9446 103.092C77.7227 102.445 77.4525 101.76 77.3464 101.085C77.1631 99.9172 77.8095 98.2576 78.07 96.9453C78.62 94.1472 79.17 91.3394 79.72 88.5412C79.9805 87.2193 80.241 85.8974 80.5016 84.5755C80.7042 83.5335 81.3217 82.0765 80.8103 81.0827C79.7007 78.9406 78.3788 76.9433 77.356 74.7337C76.2368 72.3119 75.3298 69.8128 74.5772 67.2559C74.2202 66.0305 72.2904 66.5515 72.6571 67.7866L72.6378 67.7962Z" fill="#18181D"/>
<path d="M125.938 34.4309C126.912 40.6158 127.395 46.8683 127.366 53.1303C127.327 58.9872 127.443 65.0466 126.198 70.807C124.095 80.5233 116.405 88.5608 106.708 90.8958C99.9534 92.5265 92.9579 91.0213 87.3906 86.8916C86.3581 86.1293 85.3643 87.8565 86.3871 88.6091C95.6017 95.4501 108.155 94.8422 117.196 88.088C121.943 84.5373 125.619 79.7129 127.414 74.0393C129.209 68.3658 129.247 62.1423 129.334 56.1987C129.44 48.7112 129.035 41.3009 127.877 33.9002C127.674 32.6363 125.754 33.1766 125.957 34.4309H125.938Z" fill="#18181D"/>
<path d="M100.317 57.5254C101.839 57.4469 102.995 55.8605 102.898 53.9818C102.801 52.1032 101.489 50.6439 99.9668 50.7223C98.4448 50.8008 97.2894 52.3873 97.3862 54.2659C97.483 56.1445 98.7954 57.6038 100.317 57.5254Z" fill="#18181D"/>
<path d="M119.525 56.6345C121.047 56.556 122.202 54.9695 122.105 53.0909C122.008 51.2123 120.696 49.753 119.174 49.8314C117.652 49.9099 116.497 51.4964 116.593 53.375C116.69 55.2536 118.003 56.7129 119.525 56.6345Z" fill="#18181D"/>
<path d="M109.418 57.7424C109.882 59.1415 110.268 60.5695 110.48 62.0265C110.625 63.001 110.692 64.2264 110.567 65.0948C110.538 65.3071 110.489 65.5193 110.432 65.7316C110.403 65.8281 110.374 65.9246 110.345 66.0211C110.335 66.0597 110.229 66.3105 110.306 66.1369C110.239 66.2912 110.152 66.4456 110.055 66.5904C109.94 66.764 110.171 66.4939 110.017 66.6386C109.959 66.6868 109.911 66.7447 109.853 66.793C110.065 66.6097 109.496 66.9474 109.824 66.8219C109.766 66.8412 109.708 66.8702 109.65 66.8798C109.621 66.8798 109.38 66.9281 109.486 66.9184C109.582 66.9088 109.303 66.9184 109.254 66.9184C109.168 66.9184 109.09 66.9088 109.013 66.8895C108.647 66.8219 108.299 66.6868 107.961 66.5518C107.46 66.3491 106.862 66.7737 106.736 67.2465C106.582 67.8158 106.929 68.2692 107.431 68.4719C108.521 68.9254 109.833 69.1569 110.895 68.4912C111.734 67.9605 112.207 67.0053 112.419 66.0693C113.075 63.1843 112.255 59.9713 111.348 57.231C110.943 56.0152 109.023 56.5363 109.428 57.7617L109.418 57.7424Z" fill="#18181D"/>
<path d="M104.237 46.9839C104.121 47.2831 102.327 46.3278 99.3935 46.5594C96.4892 46.7813 94.8585 47.9874 94.6945 47.6979C94.5015 47.3506 96.4602 45.1121 99.1137 44.8516C101.912 44.5717 104.382 46.6173 104.237 46.9839Z" fill="#18181D"/>
<path d="M124.133 45.5272C124.017 45.8263 122.223 44.8711 119.289 45.1027C116.385 45.3246 114.755 46.5307 114.591 46.2412C114.398 45.8939 116.356 43.6553 119.01 43.3948C121.808 43.115 124.278 45.1605 124.133 45.5272Z" fill="#18181D"/>
<path d="M99.5672 74.3193C102.8 74.7631 106.022 75.207 109.255 75.6508C109.718 75.7184 110.171 75.7763 110.634 75.8438L110.036 74.3772C109.988 74.4447 109.94 74.5026 109.891 74.5702C109.785 74.7245 110.046 74.3772 109.949 74.493C109.92 74.5316 109.891 74.5702 109.853 74.6088C109.766 74.7052 109.689 74.8114 109.602 74.9079C109.39 75.1587 109.158 75.3903 108.917 75.6219C108.791 75.7473 108.656 75.8631 108.521 75.9789C108.454 76.0368 108.377 76.0947 108.309 76.1526C108.135 76.2973 108.377 76.1043 108.184 76.249C107.846 76.4903 107.508 76.7025 107.132 76.8859C107.084 76.9148 106.852 77.0113 106.939 76.9824C107.026 76.9438 106.775 77.0403 106.736 77.0596C106.524 77.1271 106.312 77.1753 106.099 77.2332C105.858 77.2911 106.148 77.2332 105.964 77.2525C105.858 77.2525 105.752 77.2718 105.646 77.2718C105.54 77.2718 105.434 77.2718 105.328 77.2718C105.27 77.2718 105.202 77.2718 105.144 77.2525C105.25 77.2622 105.212 77.2622 105.125 77.2525C104.565 77.1464 104.295 77.0403 103.822 76.7508C102.394 75.8824 101.449 74.3193 100.677 72.8623C100.079 71.7238 98.3514 72.7369 98.9593 73.8658C100.31 76.4131 102.539 79.4332 105.781 79.2595C107.749 79.1534 109.477 77.9762 110.779 76.5771C111.126 76.2008 111.455 75.8052 111.744 75.3903C112.072 74.9079 111.773 74.0105 111.146 73.9237C107.913 73.4799 104.691 73.036 101.458 72.5922C100.995 72.5246 100.542 72.4667 100.079 72.3992C99.5479 72.322 99.0075 72.5246 98.8532 73.0939C98.7277 73.557 99.0172 74.2421 99.5479 74.3193H99.5672Z" fill="#18181D"/>
<path d="M127.935 45.3052C136.676 33.8906 138.896 20.8743 133.589 12.258C129.546 5.69676 122.358 3.6705 117.929 2.4258C95.9198 -3.76874 69.2119 9.45979 64.5226 24.1646C63.8375 26.3066 62.3805 32.395 62.2744 39.8922C62.2068 44.4464 62.67 47.8235 62.8437 49.0103C63.6156 54.2303 64.9085 62.2678 71.103 67.5264C72.4442 68.665 73.7179 69.4176 74.5959 69.871C74.3065 68.5781 74.017 67.2755 73.7372 65.9536C73.5539 65.0949 73.3802 64.2361 73.2065 63.387C72.9749 63.3388 72.6758 63.2616 72.3285 63.1555C71.296 62.8371 70.5531 62.4318 70.3215 62.2967C69.3952 61.766 68.6908 61.1485 68.1794 60.6082C67.3111 59.6143 65.8444 57.9258 65.6901 55.3592C65.6322 54.404 65.6708 51.7216 67.6874 49.7533C69.6654 47.8235 72.1837 47.8524 72.7241 47.8524C74.7407 47.8717 76.1976 48.7498 76.902 49.184C78.166 49.9655 78.9283 50.8725 79.4203 51.4611C80.0765 52.2523 80.7615 53.0918 81.1764 54.3558C81.6492 55.8224 81.3404 56.3627 81.8422 57.3469C82.0931 57.839 82.6431 58.4951 84.0035 58.9486C84.8237 52.6961 84.486 47.7463 84.0035 44.3403C83.3281 39.5159 82.151 36.2063 84.0325 34.2765C85.7403 32.5205 87.9499 34.016 91.2594 31.9608C94.4243 29.9925 93.8646 27.7346 96.161 26.9531C99.6539 25.7663 101.825 30.8898 106.919 30.7258C111.425 30.581 113.143 26.461 116.105 27.5224C118.189 28.2653 117.852 30.7547 120.476 32.6459C122.618 34.1994 125.185 34.2862 126.921 34.1511L127.954 45.2858L127.935 45.3052Z" fill="#18181D"/>
</svg>
