<svg width="292" height="139" viewBox="0 0 292 139" fill="none" xmlns="http://www.w3.org/2000/svg">
<path d="M1 137.284C15.9712 132.81 39.5553 130.422 48.19 115.619C56.8909 100.704 41.868 86.1207 28.1343 97.9231C22.4693 102.791 21.0658 109.425 26.74 114.922C34.6927 122.626 47.4197 123.45 57.8425 123.127C92.0067 122.069 117.469 104.361 144.822 86.1256" stroke="white" stroke-width="2" stroke-linecap="round"/>
<path d="M150.183 82.6984L149.404 92.3429C149.332 93.2309 148.223 93.5888 147.646 92.9102L138.78 82.4865C138.203 81.8079 138.735 80.7701 139.623 80.8419L149.267 81.6211C149.818 81.6656 150.228 82.1479 150.183 82.6984Z" fill="white"/>
<path d="M80.2499 4.35756C80.6708 4.37025 81.1928 4.57417 81.4877 4.9359C82.7514 4.37098 84.1102 4.05698 85.4892 4.13706C88.065 4.30882 90.1071 5.87368 90.6875 8.4658C91.9131 14.1994 88.4022 21.1395 83.5607 24.2652C81.0474 25.8488 77.0509 27.191 74.6104 24.8015C72.6316 22.9114 72.3952 19.902 72.5341 17.3529C72.6528 14.4098 73.3507 11.4051 74.7077 8.73878C75.7743 6.55558 77.5486 4.23334 80.2499 4.35756ZM78.2892 9.10338C78.2027 9.06442 78.0863 9.02242 78.0327 8.95665C77.2869 10.3583 76.744 11.841 76.4039 13.4046C75.8082 15.9976 75.4148 18.973 76.3297 21.5389C77.2475 24.0749 78.7707 23.6268 80.6526 22.9138C84.9183 21.2975 87.7436 15.4636 87.5934 11.0155C87.5217 9.34971 87.2154 7.02674 85.2249 6.73364C83.5985 6.4173 81.7844 7.6499 80.6182 8.73739C80.0501 9.28265 79.0586 9.54357 78.2892 9.10338ZM112.556 15.9089C112.638 19.8374 110.635 23.5235 109.715 27.2293C109.312 28.8167 105.918 28.6823 106.366 26.9487C107.157 23.6217 108.712 20.4931 109.118 17.0968C109.151 16.7685 109.188 16.4103 109.155 16.1356C108.967 16.2069 108.779 16.2783 108.588 16.3794C107.189 17.0814 105.82 18.0879 104.362 18.7838C104.161 19.5775 103.894 20.4248 103.66 21.2453C103.122 22.9697 102.462 24.7119 101.835 26.4272C101.25 28.0262 97.9355 27.1158 98.5175 25.5466C99.7172 22.3517 101.111 19.0258 101.455 15.6532C101.458 15.6234 101.464 15.5637 101.467 15.5338C101.338 15.6112 101.12 15.6795 100.992 15.7569C99.4862 16.3273 98.0788 17.1189 96.5763 17.6595C96.4539 17.6772 96.2985 17.7217 96.206 17.7424C95.2961 20.7557 94.452 23.7155 93.4587 26.66C93.2067 27.3581 92.4058 27.8193 91.729 27.3584C91.0254 26.8646 90.9198 25.8286 91.1809 25.041C92.6034 20.8435 93.7005 16.5827 95.0334 12.3761C95.3153 11.681 96.149 11.193 96.7929 11.6807C97.5264 12.1775 97.632 13.2135 97.3709 14.0011C97.3648 14.0608 97.335 14.0578 97.3319 14.0876C100.427 12.714 104.597 11.1483 104.838 15.0025C104.826 15.1219 104.87 15.2772 104.858 15.3966C105.985 14.6971 107.114 13.9678 108.354 13.6416C110.274 13.1436 112.518 13.6132 112.556 15.9089ZM120.654 26.7448C121.377 26.4565 123.651 25.1501 123.095 24.0984C122.675 23.1812 121.18 23.0591 120.296 23.1501C120.111 23.1915 119.869 23.1971 119.631 23.1728C119.019 23.2612 118.472 23.2961 117.869 23.295C117.512 24.4347 117.235 25.9745 118.111 26.8477C118.355 27.1138 118.624 27.1412 119.018 27.121C119.558 27.1458 120.113 27.0214 120.654 26.7448ZM123.432 17.2272C121.632 15.9583 119.929 18.4687 118.901 20.5655C119.973 20.4032 121.072 19.9723 121.96 19.55C122.623 19.2557 124.649 18.0145 123.432 17.2272ZM124.633 21.722C126.762 23.0243 127.042 25.3144 125.346 27.1621C123.889 28.7327 121.706 29.7467 119.532 29.7667C117.485 29.7392 115.11 28.7737 114.484 26.6293C114.042 25.0464 114.203 23.4646 114.683 22.0057C114.645 21.7907 114.627 21.6683 114.675 21.4923C114.703 21.2236 114.876 21.0001 115.074 20.8392C115.259 20.4963 115.421 20.0906 115.613 19.6879C116.647 17.5315 118.087 15.2356 120.571 14.5236C122.62 13.9481 125.363 14.559 126.619 16.4359C128 18.5667 126.382 20.543 124.434 21.6112C124.52 21.6501 124.55 21.6532 124.633 21.722ZM139.112 21.2359C139.794 20.461 139.385 19.1528 138.592 18.6499C137.578 17.9436 136.3 18.0547 135.344 18.862C134.384 19.6991 133.582 20.7633 133.039 21.9445C133.875 22.0296 134.684 22.0817 135.595 22.0237C136.565 21.9717 138.398 22.0376 139.112 21.2359ZM140.959 16.7197C142.533 17.8449 143.384 19.8614 142.506 21.6718C141.52 23.6522 139.101 24.3106 137.095 24.4682C135.42 24.6294 133.733 24.6084 132.092 24.4413C131.89 25.235 131.805 26.0707 131.911 26.8052C132.299 28.9253 134.699 30.2252 136.508 28.7508C137.166 28.2146 138.118 28.0402 138.888 28.4804C139.541 28.8786 139.721 29.7714 139.123 30.3137C135.966 32.8872 130.068 32.4677 128.739 28.0503C128.083 25.9029 128.81 23.5041 129.706 21.5146C130.593 19.6147 131.928 17.4589 133.924 16.5161C136.15 15.3858 138.861 15.119 140.959 16.7197ZM164.836 21.2311C164.918 25.1597 162.915 28.8457 161.995 32.5516C161.592 34.139 158.198 34.0045 158.646 32.271C159.437 28.944 160.992 25.8154 161.398 22.419C161.431 22.0907 161.468 21.7326 161.435 21.4579C161.247 21.5292 161.059 21.6005 160.868 21.7017C159.47 22.4037 158.101 23.4102 156.643 24.1061C156.441 24.8998 156.174 25.7471 155.94 26.5676C155.402 28.292 154.742 30.0341 154.116 31.7495C153.531 33.3484 150.216 32.438 150.798 30.8689C151.997 27.674 153.391 24.3481 153.735 20.9755C153.738 20.9457 153.744 20.886 153.747 20.8561C153.618 20.9335 153.4 21.0018 153.272 21.0791C151.766 21.6496 150.359 22.4411 148.856 22.9817C148.734 22.9994 148.579 23.0439 148.486 23.0647C147.576 26.078 146.732 29.0377 145.739 31.9823C145.487 32.6803 144.686 33.1416 144.009 32.6807C143.306 32.1869 143.2 31.1509 143.461 30.3633C144.884 26.1657 145.981 21.905 147.314 17.6983C147.595 17.0033 148.429 16.5152 149.073 17.0029C149.807 17.4998 149.912 18.5358 149.651 19.3234C149.645 19.3831 149.615 19.3801 149.612 19.4099C152.707 18.0363 156.877 16.4706 157.118 20.3248C157.106 20.4442 157.15 20.5995 157.138 20.7189C158.265 20.0194 159.395 19.29 160.634 18.9639C162.554 18.4658 164.798 18.9355 164.836 21.2311ZM176.712 21.3244C176.954 19.5397 179.818 18.9568 179.56 21.1922C179.066 25.454 176.772 29.3216 176.299 33.6761C176.06 35.4309 173.229 35.987 173.457 33.7486C173.457 33.7486 173.463 33.6889 173.466 33.6591C171.505 34.8466 169.101 35.6573 167.495 34.2574C165.811 32.729 166.043 29.8577 166.455 27.8793C166.988 25.3101 168.046 22.9149 168.692 20.4175C169.207 18.3289 171.737 18.9483 171.193 21.0339C170.616 23.1464 169.717 25.1657 169.226 27.3171C168.989 28.1674 168.202 30.8616 169.231 31.4186C170.06 31.8649 171.327 31.2701 172.059 30.8923C172.982 30.4134 173.762 29.8595 174.518 29.243C175.389 26.6176 176.435 24.0403 176.712 21.3244ZM196.548 22.4392C197.389 21.2884 199.437 21.6174 198.935 23.2852C197.623 27.5844 196.158 31.8983 195.315 36.3357C194.986 38.0814 192.084 38.4493 192.488 36.259C192.994 33.6569 193.706 31.1059 194.481 28.5311C193.043 29.9226 191.586 31.1916 190.178 32.5861C189.78 32.9377 188.881 33.1779 188.417 32.7084C187.311 31.7213 186.941 30.0251 186.474 28.681C186.427 28.5555 186.412 28.4032 186.335 28.2747C185.51 30.4524 184.539 32.585 183.595 34.7505C182.93 36.2509 179.668 35.7077 180.486 33.8913C181.337 32.048 182.155 30.2315 182.857 28.373C183.301 27.2723 183.685 26.1655 183.986 24.9899C184.091 24.5483 184.232 24.05 184.218 23.5963C184.233 23.447 184.078 23.1901 184.29 23.483C182.964 21.991 185.966 20.6382 187.024 21.8013C187.382 22.1392 187.521 22.5454 187.595 23.0053C188.379 23.5977 188.607 24.9176 188.936 25.8256C189.206 26.7276 189.541 28.179 189.981 29.1887C192.28 27.0406 194.693 24.9642 196.548 22.4392ZM223.163 25.0581C223.164 25.9328 222.817 26.6814 222.559 27.4392C222.186 28.7281 221.781 30.0438 221.325 31.2639C220.467 33.7699 219.719 36.3775 218.634 38.7398C218.295 39.3989 217.61 40.2037 216.799 39.8798C216.015 39.5889 215.948 38.4663 216.227 37.8011C216.877 36.4501 217.36 34.9613 217.864 33.5652C215.678 34.3076 213.077 34.6761 211.456 33.1239C208.792 30.5609 211.729 27.181 212.098 24.4443C212.213 23.6117 212.871 22.7741 213.755 22.6831C214.609 22.5891 215.008 23.4137 214.905 24.127C214.714 25.4042 214.142 26.5823 213.689 27.7726C213.431 28.5304 212.769 30.0008 213.675 30.5756C215.181 31.4828 217.466 30.66 219.073 29.9793C219.448 28.962 220.091 26.7959 220.46 25.8384C220.479 25.0563 220.908 24.1048 221.777 23.8616C222.586 23.6123 223.146 24.3327 223.163 25.0581ZM234.871 30.9843C235.553 30.2094 235.143 28.9012 234.35 28.3983C233.336 27.692 232.058 27.8032 231.102 28.6104C230.142 29.4475 229.34 30.5118 228.798 31.6929C229.633 31.778 230.442 31.8302 231.353 31.7721C232.323 31.7201 234.156 31.7861 234.871 30.9843ZM236.718 26.4682C238.292 27.5934 239.142 29.6099 238.264 31.4203C237.278 33.4006 234.859 34.059 232.853 34.2166C231.178 34.3778 229.491 34.3569 227.85 34.1898C227.649 34.9835 227.563 35.8191 227.67 36.5537C228.057 38.6738 230.458 39.9736 232.266 38.4992C232.924 37.9631 233.876 37.7886 234.646 38.2288C235.299 38.627 235.479 39.5199 234.881 40.0621C231.724 42.6356 225.827 42.2161 224.497 37.7988C223.841 35.6513 224.568 33.2526 225.464 31.2631C226.351 29.3631 227.686 27.2073 229.682 26.2646C231.908 25.1342 234.619 24.8674 236.718 26.4682ZM250.801 33.5711C251.102 32.094 250.57 30.8035 248.89 30.7229C248.051 30.6676 247.23 30.7348 246.391 30.9811C245.713 31.1232 245.053 31.3877 244.434 31.8373C243.89 34.2244 243.172 36.5336 242.332 38.8605C245.763 40.1144 250.118 37.0296 250.801 33.5711ZM250.289 27.6387C253.077 28.1034 254.15 30.5949 253.674 33.2001C252.653 38.1924 246.613 43.91 241.228 42.0049C240.685 43.4875 240.178 44.9135 239.757 46.3784C239.49 47.2257 238.731 47.8721 237.856 47.8736C237.095 47.9468 236.469 47.28 236.7 46.4894C238.538 40.5851 241.351 34.8707 242.01 28.6956C242.104 27.7704 242.684 27.1058 243.56 26.8028C244.208 26.6577 245.234 26.9432 245.146 27.8087C245.128 27.9878 245.109 28.1668 245.055 28.4026C246.701 27.6353 248.574 27.3133 250.289 27.6387ZM265.867 34.1399C266.549 33.365 266.139 32.0567 265.346 31.5538C264.333 30.8475 263.055 30.9587 262.098 31.7659C261.138 32.603 260.337 33.6673 259.794 34.8484C260.63 34.9335 261.439 34.9857 262.349 34.9276C263.319 34.8756 265.152 34.9416 265.867 34.1399ZM267.714 29.6237C269.288 30.7489 270.138 32.7654 269.26 34.5758C268.275 36.5561 265.856 37.2145 263.849 37.3721C262.174 37.5333 260.488 37.5124 258.846 37.3453C258.645 38.139 258.56 38.9747 258.666 39.7092C259.053 41.8293 261.454 43.1291 263.263 41.6547C263.92 41.1186 264.873 40.9442 265.642 41.3843C266.295 41.7825 266.476 42.6754 265.878 43.2176C262.721 45.7911 256.823 45.3716 255.494 40.9543C254.838 38.8068 255.564 36.4081 256.461 34.4186C257.347 32.5187 258.683 30.3628 260.678 29.4201C262.904 28.2897 265.615 28.0229 267.714 29.6237ZM279.458 37.6343C279.795 37.8797 280.158 38.1579 280.391 38.5434C281.555 40.1396 280.864 42.7831 279.497 44.0613C276.633 46.7249 271.541 46.3875 268.32 44.5518C266.498 43.4918 269.068 41.6427 270.521 42.4841C272.03 43.3614 275.21 44.1074 276.682 42.6891C277.345 42.0933 278.053 40.4766 277.257 39.702C276.357 38.7661 275.025 39.4145 273.936 38.8513C273.259 38.6919 272.973 38.2406 272.989 37.7899C272.802 37.2582 273.003 36.766 273.749 36.5405C275.093 36.0742 278.333 35.6502 278.772 34.0062C279.322 31.8608 275.066 32.7846 274.117 32.9292C272.34 33.2006 271.037 30.5953 273.244 30.247C274.925 30.0261 276.669 29.7814 278.286 30.1873C280.145 30.5877 281.963 31.979 282.088 34.0121C282.175 35.8302 281.008 36.9176 279.458 37.6343ZM133.838 41.6165C135.295 41.5236 135.487 44.0762 134.364 44.7459C134.262 44.8561 134.193 44.9396 134.035 45.0139C132.888 45.6208 132.166 47.0852 131.397 48.1227C130.245 49.6639 129.086 51.2649 127.875 52.8001C125.708 55.7156 123.449 58.6519 121.31 61.6004C120.086 63.255 118.347 60.7862 119.296 59.4654C121.639 56.2964 124.038 53.1634 126.408 50.0273C127.563 48.4562 128.715 46.9149 129.873 45.314C130.038 45.1799 130.116 45.0069 130.25 44.8699C129.534 44.7969 128.788 44.721 128.038 44.6749C127.054 44.5746 126.003 44.5279 125.024 44.368C124.281 44.2622 123.445 44.1771 123.166 43.3647C122.914 42.5851 122.921 41.6209 123.606 41.1176C123.905 40.8465 124.296 40.8562 124.615 40.9791C124.615 40.9791 124.642 41.012 124.732 41.0211L124.761 41.0242C124.761 41.0242 124.821 41.0303 124.851 41.0333C125.236 41.1026 125.594 41.1391 125.952 41.1756C126.967 41.2789 127.952 41.3791 128.94 41.4496C130.561 41.5241 132.256 41.757 133.838 41.6165ZM157.789 50.6588C158.63 49.508 160.677 49.837 160.176 51.5048C158.864 55.804 157.399 60.1179 156.556 64.5553C156.227 66.301 153.325 66.6689 153.729 64.4786C154.235 61.8765 154.947 59.3255 155.722 56.7507C154.283 58.1422 152.827 59.4112 151.419 60.8058C151.021 61.1573 150.122 61.3975 149.657 60.928C148.552 59.9409 148.182 58.2447 147.715 56.9006C147.668 56.7751 147.653 56.6229 147.576 56.4944C146.751 58.672 145.78 60.8046 144.836 62.9702C144.17 64.4705 140.909 63.9273 141.727 62.1109C142.578 60.2676 143.396 58.4511 144.098 56.5926C144.542 55.4919 144.926 54.3851 145.226 53.2095C145.332 52.7679 145.473 52.2697 145.459 51.8159C145.474 51.6667 145.319 51.4097 145.531 51.7026C144.205 50.2106 147.207 48.8578 148.265 50.0209C148.623 50.3588 148.762 50.7651 148.836 51.2249C149.62 51.8173 149.847 53.1372 150.177 54.0452C150.447 54.9472 150.782 56.3986 151.222 57.4083C153.521 55.2602 155.934 53.1839 157.789 50.6588ZM171.864 52.9962C172.106 51.2116 174.969 50.6286 174.712 52.864C174.218 57.1259 171.924 60.9935 171.451 65.3479C171.212 67.1027 168.381 67.6589 168.609 65.4205C168.609 65.4205 168.615 65.3608 168.618 65.3309C166.657 66.5185 164.253 67.3291 162.646 65.9292C160.963 64.4008 161.195 61.5296 161.607 59.5512C162.14 56.9819 163.198 54.5868 163.844 52.0894C164.358 50.0007 166.889 50.6202 166.345 52.7058C165.768 54.8182 164.869 56.8375 164.378 58.9889C164.141 59.8393 163.354 62.5334 164.383 63.0905C165.212 63.5368 166.479 62.942 167.211 62.5642C168.134 62.0852 168.914 61.5314 169.67 60.9148C170.541 58.2895 171.587 55.7122 171.864 52.9962ZM190.453 53.6222C191.217 53.8206 191.586 54.6422 191.092 55.3458C189.931 56.9765 189.313 58.9038 188.87 60.8792C188.867 60.909 188.918 61.0046 188.912 61.0643C188.908 61.3957 188.857 61.6016 188.624 61.8191C188.25 63.711 187.966 65.612 187.393 67.3931C186.907 68.9116 183.536 69.1414 184.148 67.2738C184.71 65.6121 185.071 63.8396 185.367 62.1207C183.868 62.0285 182.337 61.9631 180.842 61.841C180.235 63.6489 179.48 65.4416 178.671 67.1685C177.976 68.6658 174.85 67.3826 175.623 65.7123C176.456 64.0481 177.145 62.309 177.686 60.5547C177.617 60.3367 177.576 60.1516 177.6 59.9128C177.687 59.6503 177.831 59.4236 178.082 59.3286C178.467 57.9203 178.818 56.5388 179.113 55.1214C179.042 54.9332 179.063 54.7243 179.117 54.4886C179.195 54.3156 179.243 54.1395 179.327 53.9068C179.766 52.2628 182.971 53.0715 182.648 54.7576C182.371 56.2974 182.034 57.8311 181.577 59.3527C183.046 59.4419 184.491 59.4684 185.959 59.5576C186.413 57.7643 187.04 56.049 188.192 54.5077C188.716 53.8072 189.603 53.3849 190.453 53.6222ZM203.748 55.3978C204.67 54.0442 207.961 54.8919 206.991 56.4215C204.57 60.065 202.375 63.8522 199.834 67.4835C198.457 69.4543 196.976 71.5651 195.239 73.2277C193.803 74.5893 191.945 75.6666 190.153 74.3082C189.506 73.8503 189.693 72.9043 190.332 72.5473C190.724 72.2554 191.24 72.2175 191.682 72.3228L191.688 72.2631C191.957 72.2905 193.399 70.5676 193.638 70.2904C194.317 69.5454 194.969 68.7674 195.535 67.9505C195.248 67.8007 195.01 67.4749 194.93 67.0748C194.441 63.2858 194.559 59.4681 193.974 55.7296C193.715 54.1351 197.005 53.5052 197.307 55.2848C197.782 58.3186 197.803 61.3664 198.04 64.3758C200.054 61.4749 201.847 58.3706 203.748 55.3978ZM227.635 59.7897C227.718 63.7182 225.714 67.4042 224.794 71.1101C224.391 72.6975 220.997 72.5631 221.445 70.8295C222.236 67.5025 223.791 64.3739 224.197 60.9776C224.231 60.6493 224.267 60.2911 224.235 60.0164C224.046 60.0877 223.858 60.159 223.667 60.2602C222.269 60.9622 220.9 61.9687 219.442 62.6646C219.24 63.4583 218.973 64.3056 218.739 65.1261C218.201 66.8505 217.542 68.5927 216.915 70.308C216.33 71.907 213.015 70.9966 213.597 69.4274C214.797 66.2325 216.191 62.9066 216.534 59.534C216.537 59.5042 216.543 59.4445 216.546 59.4146C216.418 59.492 216.2 59.5603 216.071 59.6377C214.566 60.2081 213.158 60.9997 211.656 61.5403C211.533 61.558 211.378 61.6025 211.285 61.6232C210.375 64.6365 209.531 67.5963 208.538 70.5408C208.286 71.2389 207.485 71.7001 206.808 71.2392C206.105 70.7454 205.999 69.7094 206.26 68.9218C207.683 64.7243 208.78 60.4635 210.113 56.2568C210.395 55.5618 211.228 55.0737 211.872 55.5615C212.606 56.0583 212.711 57.0943 212.45 57.8819C212.444 57.9416 212.414 57.9386 212.411 57.9684C215.506 56.5948 219.676 55.0291 219.917 58.8833C219.905 59.0027 219.95 59.158 219.937 59.2774C221.064 58.5779 222.194 57.8486 223.433 57.5224C225.353 57.0243 227.597 57.494 227.635 59.7897Z" fill="white"/>
</svg>
