<svg width="629" height="440" viewBox="0 0 629 440" fill="none" xmlns="http://www.w3.org/2000/svg">
<g filter="url(#filter0_d_1208_733)">
<path d="M140.388 49.6732L130.271 38.539C127.242 35.205 125.727 33.538 123.91 32.3498C122.365 31.3387 120.664 30.5862 118.876 30.1221C116.775 29.5767 114.523 29.5767 110.018 29.5767C83.8458 29.5767 70.7595 29.5767 60.7975 34.7481C52.3902 39.1125 45.5358 45.9668 41.1715 54.3741C36 64.3362 36 77.4224 36 103.595V319.083C36 345.704 36 359.015 41.3449 369.11C45.6582 377.256 52.3203 383.918 60.4667 388.232C70.5614 393.577 83.8722 393.577 110.494 393.577H529.506C556.128 393.577 569.439 393.577 579.533 388.232C587.68 383.918 594.342 377.256 598.655 369.11C604 359.015 604 345.704 604 319.083V132.126C604 105.504 604 92.1934 598.655 82.0986C594.342 73.9523 587.68 67.2902 579.533 62.9769C569.439 57.632 556.128 57.632 529.506 57.632H158.373C154.33 57.632 152.309 57.632 150.425 57.1344C148.892 56.7291 147.432 56.0831 146.1 55.2204C144.465 54.161 143.106 52.6651 140.388 49.6732Z" fill="white"/>
<path d="M140.388 49.6732L130.271 38.539C127.242 35.205 125.727 33.538 123.91 32.3498C122.365 31.3387 120.664 30.5862 118.876 30.1221C116.775 29.5767 114.523 29.5767 110.018 29.5767C83.8458 29.5767 70.7595 29.5767 60.7975 34.7481C52.3902 39.1125 45.5358 45.9668 41.1715 54.3741C36 64.3362 36 77.4224 36 103.595V319.083C36 345.704 36 359.015 41.3449 369.11C45.6582 377.256 52.3203 383.918 60.4667 388.232C70.5614 393.577 83.8722 393.577 110.494 393.577H529.506C556.128 393.577 569.439 393.577 579.533 388.232C587.68 383.918 594.342 377.256 598.655 369.11C604 359.015 604 345.704 604 319.083V132.126C604 105.504 604 92.1934 598.655 82.0986C594.342 73.9523 587.68 67.2902 579.533 62.9769C569.439 57.632 556.128 57.632 529.506 57.632H158.373C154.33 57.632 152.309 57.632 150.425 57.1344C148.892 56.7291 147.432 56.0831 146.1 55.2204C144.465 54.161 143.106 52.6651 140.388 49.6732Z" stroke="#EEEEEE" stroke-linecap="round"/>
</g>
<defs>
<filter id="filter0_d_1208_733" x="0.5" y="0.0766602" width="643" height="439" filterUnits="userSpaceOnUse" color-interpolation-filters="sRGB">
<feFlood flood-opacity="0" result="BackgroundImageFix"/>
<feColorMatrix in="SourceAlpha" type="matrix" values="0 0 0 0 0 0 0 0 0 0 0 0 0 0 0 0 0 0 127 0" result="hardAlpha"/>
<feOffset dx="2" dy="8"/>
<feGaussianBlur stdDeviation="18.5"/>
<feComposite in2="hardAlpha" operator="out"/>
<feColorMatrix type="matrix" values="0 0 0 0 0 0 0 0 0 0 0 0 0 0 0 0 0 0 0.21 0"/>
<feBlend mode="normal" in2="BackgroundImageFix" result="effect1_dropShadow_1208_733"/>
<feBlend mode="normal" in="SourceGraphic" in2="effect1_dropShadow_1208_733" result="shape"/>
</filter>
</defs>
</svg>
